<?xml version="1.0" encoding="UTF-8"?>
<svg width="37px" height="37px" viewBox="0 0 37 37" version="1.1" xmlns="http://www.w3.org/2000/svg" xmlns:xlink="http://www.w3.org/1999/xlink">
    <!-- Generator: Sketch 62 (91390) - https://sketch.com -->
    <title>Avatar / 06</title>
    <desc>Created with Sketch.</desc>
    <g id="Avatar-/-06" stroke="none" stroke-width="1" fill="none" fill-rule="evenodd">
        <path d="M15.857325,0 L15.857325,5.28566875 L10.5716563,5.28566875 L10.5716563,10.5713375 L5.28598752,10.5713375 L5.28598752,15.8570062 L0,15.8570062 L0,21.1429938 L0,26.4283437 L0,31.7143313 L0,37 L5.28598752,37 L10.5716563,37 L15.857325,37 L21.1429938,37 L26.4286625,37 L31.7143313,37 L37,37 L37,31.7143313 L37,26.4283437 L37,21.1429938 L37,15.8570062 L31.7143313,15.8570062 L31.7143313,10.5713375 L26.4286625,10.5713375 L26.4286625,5.28566875 L21.1429938,5.28566875 L21.1429938,0 L15.857325,0 Z M21,21 L26,21 L26,16 L21,16 L21,21 Z M11,21 L16,21 L16,16 L11,16 L11,21 Z M6,27 L11.2,27 L16.4,27 L21.6,27 L26.8,27 L32,27 L32,32 L26.8,32 L21.6,32 L16.4,32 L11.2,32 L6,32 L6,27 Z" id="Fill-1" fill="#97CF26"></path>
    </g>
</svg>