<?xml version="1.0" encoding="UTF-8"?>
<svg width="37px" height="37px" viewBox="0 0 37 37" version="1.1" xmlns="http://www.w3.org/2000/svg" xmlns:xlink="http://www.w3.org/1999/xlink">
    <!-- Generator: Sketch 62 (91390) - https://sketch.com -->
    <title>Avatar / 07</title>
    <desc>Created with Sketch.</desc>
    <g id="Avatar-/-07" stroke="none" stroke-width="1" fill="none" fill-rule="evenodd">
        <path d="M0,0 L0,5.28598752 L0,10.5716563 L0,15.857325 L0,21.1433125 L0,26.4286625 L0,31.7143313 L0,37 L5.28598752,37 L10.5713375,37 L15.8570062,37 L21.1429938,37 L26.4283437,37 L31.7143313,37 L37,37 L37,0 L0,0 Z M27,11 L32,11 L32,6 L27,6 L27,11 Z M6,11 L11,11 L11,6 L6,6 L6,11 Z M6,16 L11.1996864,16 L16.3996864,16 L21.6,16 L26.7996864,16 L32,16 L32,21 L26.7996864,21 L21.6,21 L16.3996864,21 L11.1996864,21 L6,21 L6,16 Z" id="Fill-1" fill="#00AAFF"></path>
    </g>
</svg>