<?xml version="1.0" encoding="UTF-8"?>
<svg width="37px" height="37px" viewBox="0 0 37 37" version="1.1" xmlns="http://www.w3.org/2000/svg" xmlns:xlink="http://www.w3.org/1999/xlink">
    <!-- Generator: Sketch 62 (91390) - https://sketch.com -->
    <title>Avatar / 01</title>
    <desc>Created with Sketch.</desc>
    <g id="Avatar-/-01" stroke="none" stroke-width="1" fill="none" fill-rule="evenodd">
        <path d="M15.808,1.42108547e-14 L15.808,5.269 L10.538,5.269 L10.538,10.538 L5.27,10.538 L5.27,15.807 L7.10542736e-15,15.807 L7.10542736e-15,21.076 L7.10542736e-15,26.345 L7.10542736e-15,31.614 L7.10542736e-15,36.883 L5.27,36.883 L10.538,36.883 L15.808,36.883 L21.076,36.883 L26.346,36.883 L31.614,36.883 L36.884,36.883 L36.884,31.614 L36.884,26.345 L36.884,21.076 L36.884,15.807 L31.614,15.807 L31.614,10.538 L26.346,10.538 L26.346,5.269 L21.076,5.269 L21.076,1.42108547e-14 L15.808,1.42108547e-14 Z M26.346,26.345 L31.614,26.345 L31.614,21.076 L26.346,21.076 L26.346,26.345 Z M5.27,26.345 L10.539,26.345 L10.539,21.076 L5.27,21.076 L5.27,26.345 Z M15.808,31.615 L21.076,31.615 L21.076,26.345 L15.808,26.345 L15.808,31.615 Z" id="Fill-11" fill="#97CF26"></path>
    </g>
</svg>