<?xml version="1.0" encoding="UTF-8"?>
<svg width="37px" height="37px" viewBox="0 0 37 37" version="1.1" xmlns="http://www.w3.org/2000/svg" xmlns:xlink="http://www.w3.org/1999/xlink">
    <!-- Generator: Sketch 62 (91390) - https://sketch.com -->
    <title>Avatar / 02</title>
    <desc>Created with Sketch.</desc>
    <g id="Avatar-/-02" stroke="none" stroke-width="1" fill="none" fill-rule="evenodd">
        <path d="M31.613,2.84217094e-14 L26.345,2.84217094e-14 L21.075,2.84217094e-14 L15.807,2.84217094e-14 L10.538,2.84217094e-14 L5.269,2.84217094e-14 L2.13162821e-14,2.84217094e-14 L2.13162821e-14,5.269 L2.13162821e-14,10.537 L2.13162821e-14,15.807 L2.13162821e-14,21.075 L2.13162821e-14,26.345 L2.13162821e-14,31.613 L2.13162821e-14,36.882 L5.269,36.882 L10.538,36.882 L10.538,31.613 L15.807,31.613 L21.075,31.613 L26.345,31.613 L26.345,36.882 L31.613,36.882 L36.883,36.882 L36.883,31.613 L36.883,26.345 L36.883,21.075 L36.883,15.807 L36.883,10.537 L36.883,5.269 L36.883,2.84217094e-14 L31.613,2.84217094e-14 Z M21.075,10.538 L26.345,10.538 L26.345,5.269 L21.075,5.269 L21.075,10.538 Z M10.538,10.538 L15.808,10.538 L15.808,5.269 L10.538,5.269 L10.538,10.538 Z M10.538,15.807 L15.807,15.807 L21.075,15.807 L26.345,15.807 L26.345,21.075 L21.075,21.075 L15.807,21.075 L10.538,21.075 L10.538,15.807 Z" id="Fill-10" fill="#00AAFF"></path>
    </g>
</svg>