<?xml version="1.0" encoding="UTF-8"?>
<svg width="37px" height="37px" viewBox="0 0 37 37" version="1.1" xmlns="http://www.w3.org/2000/svg" xmlns:xlink="http://www.w3.org/1999/xlink">
    <!-- Generator: Sketch 62 (91390) - https://sketch.com -->
    <title>Avatar / 03</title>
    <desc>Created with Sketch.</desc>
    <g id="Avatar-/-03" stroke="none" stroke-width="1" fill="none" fill-rule="evenodd">
        <path d="M21.075,1.42108547e-14 L15.807,1.42108547e-14 L10.538,1.42108547e-14 L10.538,5.269 L5.269,5.269 L5.269,10.538 L7.10542736e-15,10.538 L7.10542736e-15,15.807 L7.10542736e-15,21.076 L7.10542736e-15,26.345 L5.269,26.345 L5.269,31.613 L10.538,31.613 L10.538,36.883 L15.807,36.883 L21.075,36.883 L26.345,36.883 L26.345,31.613 L31.613,31.613 L31.613,26.345 L36.884,26.345 L36.884,21.076 L36.884,15.807 L36.884,10.538 L31.613,10.538 L31.613,5.269 L26.345,5.269 L26.345,1.42108547e-14 L21.075,1.42108547e-14 Z M21.075,15.807 L26.345,15.807 L26.345,10.538 L21.075,10.538 L21.075,15.807 Z M10.538,15.807 L15.808,15.807 L15.808,10.538 L10.538,10.538 L10.538,15.807 Z M10.538,21.076 L15.807,21.076 L21.075,21.076 L26.345,21.076 L26.345,26.345 L21.075,26.345 L15.807,26.345 L10.538,26.345 L10.538,21.076 Z" id="Fill-7" fill="#FF6163"></path>
    </g>
</svg>