<?xml version="1.0" encoding="UTF-8"?>
<svg width="37px" height="37px" viewBox="0 0 37 37" version="1.1" xmlns="http://www.w3.org/2000/svg" xmlns:xlink="http://www.w3.org/1999/xlink">
    <!-- Generator: Sketch 62 (91390) - https://sketch.com -->
    <title>Avatar / 04</title>
    <desc>Created with Sketch.</desc>
    <g id="Avatar-/-04" stroke="none" stroke-width="1" fill="none" fill-rule="evenodd">
        <path d="M26.345,1.77635684e-14 L21.075,1.77635684e-14 L15.807,1.77635684e-14 L10.537,1.77635684e-14 L5.269,1.77635684e-14 L5.269,5.27 L1.77635684e-14,5.27 L1.77635684e-14,10.538 L1.77635684e-14,15.808 L1.77635684e-14,21.076 L1.77635684e-14,26.346 L1.77635684e-14,31.614 L5.269,31.614 L5.269,36.883 L10.537,36.883 L15.807,36.883 L21.075,36.883 L26.345,36.883 L31.613,36.883 L31.613,31.614 L36.883,31.614 L36.883,26.346 L36.883,21.076 L36.883,15.808 L36.883,10.538 L36.883,5.27 L31.613,5.27 L31.613,1.77635684e-14 L26.345,1.77635684e-14 Z M21.075,10.538 L21.075,5.27 L26.345,5.27 L26.345,10.538 L26.345,15.808 L21.075,15.808 L21.075,10.538 Z M10.537,10.538 L10.537,5.27 L15.807,5.27 L15.807,10.538 L15.807,15.808 L10.537,15.808 L10.537,10.538 Z M10.537,21.076 L15.807,21.076 L21.075,21.076 L26.345,21.076 L26.345,26.346 L21.075,26.346 L15.807,26.346 L10.537,26.346 L10.537,21.076 Z" id="Fill-8" fill="#A169F7"></path>
    </g>
</svg>