<?xml version="1.0" encoding="UTF-8"?>
<svg width="37px" height="37px" viewBox="0 0 37 37" version="1.1" xmlns="http://www.w3.org/2000/svg" xmlns:xlink="http://www.w3.org/1999/xlink">
    <!-- Generator: Sketch 62 (91390) - https://sketch.com -->
    <title>Avatar / 05</title>
    <desc>Created with Sketch.</desc>
    <g id="Avatar-/-05" stroke="none" stroke-width="1" fill="none" fill-rule="evenodd">
        <path d="M31.613,1.77635684e-14 L26.345,1.77635684e-14 L21.075,1.77635684e-14 L15.807,1.77635684e-14 L10.538,1.77635684e-14 L5.269,1.77635684e-14 L2.13162821e-14,1.77635684e-14 L2.13162821e-14,5.269 L2.13162821e-14,10.538 L2.13162821e-14,15.807 L2.13162821e-14,21.076 L2.13162821e-14,26.345 L2.13162821e-14,31.614 L2.13162821e-14,36.883 L5.269,36.883 L10.538,36.883 L15.807,36.883 L21.075,36.883 L26.345,36.883 L31.613,36.883 L36.883,36.883 L36.883,31.614 L36.883,26.345 L36.883,21.076 L36.883,15.807 L36.883,10.538 L36.883,5.269 L36.883,1.77635684e-14 L31.613,1.77635684e-14 Z M21.075,10.538 L26.345,10.538 L31.613,10.538 L31.613,15.807 L26.345,15.807 L21.075,15.807 L21.075,10.538 Z M5.269,10.538 L10.538,10.538 L15.807,10.538 L15.807,15.807 L10.538,15.807 L5.269,15.807 L5.269,10.538 Z M5.269,21.076 L10.538,21.076 L15.807,21.076 L21.075,21.076 L26.345,21.076 L31.613,21.076 L31.613,26.345 L26.345,26.345 L26.345,31.614 L21.075,31.614 L15.807,31.614 L10.538,31.614 L10.538,26.345 L5.269,26.345 L5.269,21.076 Z" id="Fill-9" fill="#FF6163"></path>
    </g>
</svg>