<?xml version="1.0" encoding="UTF-8"?>
<svg width="37px" height="37px" viewBox="0 0 37 37" version="1.1" xmlns="http://www.w3.org/2000/svg" xmlns:xlink="http://www.w3.org/1999/xlink">
    <!-- Generator: Sketch 62 (91390) - https://sketch.com -->
    <title>Avatar / 08</title>
    <desc>Created with Sketch.</desc>
    <g id="Avatar-/-08" stroke="none" stroke-width="1" fill="none" fill-rule="evenodd">
        <path d="M10.5714286,0 L10.5714286,5.28598752 L5.28571429,5.28598752 L5.28571429,10.5713375 L0,10.5713375 L0,15.857325 L0,21.1429938 L0,26.4286625 L0,31.71465 L0,37 L5.28571429,37 L10.5714286,37 L15.8574616,37 L21.1428571,37 L26.4285714,37 L31.7146045,37 L37,37 L37,31.71465 L37,26.4286625 L37,21.1429938 L37,15.857325 L37,10.5713375 L31.7146045,10.5713375 L31.7146045,5.28598752 L26.4285714,5.28598752 L26.4285714,0 L10.5714286,0 Z M21,16 L26,16 L26,11 L21,11 L21,16 Z M11,16 L16,16 L16,11 L11,11 L11,16 Z M6,21 L11.1999373,21 L16.4001882,21 L21.5998118,21 L26.7997491,21 L32,21 L32,26 L26.7997491,26 L21.5998118,26 L16.4001882,26 L11.1999373,26 L6,26 L6,21 Z" id="Fill-1" fill="#A169F7"></path>
    </g>
</svg>