<?xml version="1.0" encoding="UTF-8"?>
<svg width="37px" height="37px" viewBox="0 0 37 37" version="1.1" xmlns="http://www.w3.org/2000/svg" xmlns:xlink="http://www.w3.org/1999/xlink">
    <!-- Generator: Sketch 62 (91390) - https://sketch.com -->
    <title>Avatar / 09</title>
    <desc>Created with Sketch.</desc>
    <g id="Avatar-/-09" stroke="none" stroke-width="1" fill="none" fill-rule="evenodd">
        <path d="M10.5714286,0 L10.5714286,5.28598752 L5.28571429,5.28598752 L5.28571429,10.5713375 L0,10.5713375 L0,15.857325 L0,21.1429938 L0,26.4286625 L5.28571429,26.4286625 L5.28571429,31.7143313 L10.5714286,31.7143313 L10.5714286,37 L15.8574616,37 L21.1428571,37 L26.4285714,37 L26.4285714,31.7143313 L31.7146045,31.7143313 L31.7146045,26.4286625 L37,26.4286625 L37,10.5713375 L31.7146045,10.5713375 L31.7146045,5.28598752 L26.4285714,5.28598752 L26.4285714,0 L10.5714286,0 Z M21,16.5001658 L21,11 L26,11 L26,16.5001658 L26,22 L21,22 L21,16.5001658 Z M11,16.5001658 L11,11 L16,11 L16,16.5001658 L16,22 L11,22 L11,16.5001658 Z M16,32 L21,32 L21,27 L16,27 L16,32 Z" id="Fill-1" fill="#97CF26"></path>
    </g>
</svg>