<?xml version="1.0" encoding="UTF-8"?>
<svg width="37px" height="37px" viewBox="0 0 37 37" version="1.1" xmlns="http://www.w3.org/2000/svg" xmlns:xlink="http://www.w3.org/1999/xlink">
    <!-- Generator: Sketch 62 (91390) - https://sketch.com -->
    <title>Avatar / 10</title>
    <desc>Created with Sketch.</desc>
    <g id="Avatar-/-10" stroke="none" stroke-width="1" fill="none" fill-rule="evenodd">
        <path d="M15.857325,0 L15.857325,5.28598752 L10.5713375,5.28598752 L10.5713375,10.5713375 L5.28598752,10.5713375 L5.28598752,15.857325 L0,15.857325 L0,21.1429938 L5.28598752,21.1429938 L5.28598752,26.4286625 L10.5713375,26.4286625 L10.5713375,31.7143313 L15.857325,31.7143313 L15.857325,37 L21.1429938,37 L21.1429938,31.7143313 L26.4283437,31.7143313 L26.4283437,26.4286625 L31.7143313,26.4286625 L31.7143313,21.1429938 L37,21.1429938 L37,15.857325 L31.7143313,15.857325 L31.7143313,10.5713375 L26.4283437,10.5713375 L26.4283437,5.28598752 L21.1429938,5.28598752 L21.1429938,0 L15.857325,0 Z M21,21 L26,21 L26,16 L21,16 L21,21 Z M11,21 L16,21 L16,16 L11,16 L11,21 Z" id="Fill-1" fill="#00AAFF"></path>
    </g>
</svg>