<?xml version="1.0" encoding="UTF-8"?>
<svg width="90px" height="91px" viewBox="0 0 90 91" version="1.1" xmlns="http://www.w3.org/2000/svg" xmlns:xlink="http://www.w3.org/1999/xlink">
    <!-- Generator: Sketch 63.1 (92452) - https://sketch.com -->
    <title>Elements / button 1</title>
    <desc>Created with Sketch.</desc>
    <g id="1920x1080" stroke="none" stroke-width="1" fill="none" fill-rule="evenodd">
        <g id="03" transform="translate(-722.000000, -865.000000)">
            <g id="Elements-/-button-1" transform="translate(722.000900, 865.000200)">
                <polygon id="Fill-1" fill="#97CF26" points="18 0 18 18 0 18 0 36 0 54 0 72 18 72 18 90 35.998 90 53.998 90 72 90 72 72 90 72 90 54 90 36 90 18 72 18 72 0"></polygon>
                <rect id="Rectangle-Copy-17" fill="#FFFFFF" x="56" y="42" width="7" height="7"></rect>
                <rect id="Rectangle-Copy-19" fill="#FFFFFF" x="63" y="49" width="7" height="7"></rect>
                <rect id="Rectangle-Copy-18" fill="#FFFFFF" x="56" y="35" width="7" height="7"></rect>
                <rect id="Rectangle-Copy-21" fill="#FFFFFF" x="49" y="28" width="7" height="7"></rect>
                <rect id="Rectangle-Copy-7" fill="#FFFFFF" x="42" y="21" width="7" height="7"></rect>
                <rect id="Rectangle-Copy-8" fill="#FFFFFF" x="28" y="35" width="7" height="7"></rect>
                <rect id="Rectangle-Copy-20" fill="#FFFFFF" x="35" y="28" width="7" height="7"></rect>
                <rect id="Rectangle-Copy-2" fill="#FFFFFF" x="21" y="49" width="7" height="7"></rect>
                <rect id="Rectangle-Copy-12" fill="#FFFFFF" x="28" y="42" width="7" height="7"></rect>
                <rect id="Rectangle-Copy-3" fill="#FFFFFF" x="21" y="56" width="7" height="7"></rect>
                <rect id="Rectangle-Copy-11" fill="#FFFFFF" x="63" y="56" width="7" height="7"></rect>
                <rect id="Rectangle-Copy-4" fill="#FFFFFF" x="28" y="56" width="7" height="7"></rect>
                <rect id="Rectangle-Copy-9" fill="#FFFFFF" x="49" y="56" width="7" height="7"></rect>
                <rect id="Rectangle-Copy-16" fill="#FFFFFF" x="56" y="56" width="7" height="7"></rect>
                <rect id="Rectangle-Copy-5" fill="#FFFFFF" x="35" y="56" width="7" height="7"></rect>
                <rect id="Rectangle-Copy-6" fill="#FFFFFF" x="42" y="56" width="7" height="7"></rect>
            </g>
        </g>
    </g>
</svg>