<?xml version="1.0" encoding="UTF-8"?>
<svg width="91px" height="90px" viewBox="0 0 91 90" version="1.1" xmlns="http://www.w3.org/2000/svg" xmlns:xlink="http://www.w3.org/1999/xlink">
    <!-- Generator: Sketch 63.1 (92452) - https://sketch.com -->
    <title>Elements / button 2</title>
    <desc>Created with Sketch.</desc>
    <g id="1920x1080" stroke="none" stroke-width="1" fill="none" fill-rule="evenodd">
        <g id="03" transform="translate(-850.000000, -865.000000)">
            <g id="Elements-/-button-2" transform="translate(850.694600, 865.000200)">
                <polygon id="Fill-7" fill="#FF6163" points="18 0 18 18 0 18 0 36 0 54 0 72 18 72 18 90 36 90 54 90 72 90 72 72 90 72 90 54 90 36 90 18 72 18 72 0"></polygon>
                <rect id="Rectangle" fill="#FFFFFF" x="38" y="24" width="7" height="7"></rect>
                <rect id="Rectangle-Copy-7" fill="#FFFFFF" x="45" y="24" width="7" height="7"></rect>
                <rect id="Rectangle-Copy" fill="#FFFFFF" x="31" y="31" width="7" height="7"></rect>
                <rect id="Rectangle-Copy-8" fill="#FFFFFF" x="52" y="31" width="7" height="7"></rect>
                <rect id="Rectangle-Copy-2" fill="#FFFFFF" x="24" y="38" width="7" height="7"></rect>
                <rect id="Rectangle-Copy-10" fill="#FFFFFF" x="59" y="38" width="7" height="7"></rect>
                <rect id="Rectangle-Copy-3" fill="#FFFFFF" x="24" y="45" width="7" height="7"></rect>
                <rect id="Rectangle-Copy-11" fill="#FFFFFF" x="59" y="45" width="7" height="7"></rect>
                <rect id="Rectangle-Copy-4" fill="#FFFFFF" x="31" y="52" width="7" height="7"></rect>
                <rect id="Rectangle-Copy-9" fill="#FFFFFF" x="52" y="52" width="7" height="7"></rect>
                <rect id="Rectangle-Copy-5" fill="#FFFFFF" x="38" y="59" width="7" height="7"></rect>
                <rect id="Rectangle-Copy-6" fill="#FFFFFF" x="45" y="59" width="7" height="7"></rect>
            </g>
        </g>
    </g>
</svg>