<?xml version="1.0" encoding="UTF-8"?>
<svg width="91px" height="90px" viewBox="0 0 91 90" version="1.1" xmlns="http://www.w3.org/2000/svg" xmlns:xlink="http://www.w3.org/1999/xlink">
    <!-- Generator: Sketch 63.1 (92452) - https://sketch.com -->
    <title>Elements / button 4</title>
    <desc>Created with Sketch.</desc>
    <g id="1920x1080" stroke="none" stroke-width="1" fill="none" fill-rule="evenodd">
        <g id="03" transform="translate(-1108.000000, -865.000000)">
            <g id="Elements-/-button-4" transform="translate(1108.085600, 865.000200)">
                <polygon id="Fill-10" fill="#A169F7" points="18 0 18 18 0 18 0 36 0 54 0 72 18 72 18 90 36 90 54 90 72 90 72 72 90 72 90 18 72 18 72 0"></polygon>
                <g id="Group" stroke-width="1" transform="translate(24.000000, 24.000000)" fill="#FFFFFF">
                    <rect id="Rectangle" x="14" y="0" width="7" height="7"></rect>
                    <rect id="Rectangle-Copy-7" x="21" y="0" width="7" height="7"></rect>
                    <rect id="Rectangle-Copy-16" x="28" y="0" width="7" height="7"></rect>
                    <rect id="Rectangle-Copy-17" x="35" y="0" width="7" height="7"></rect>
                    <rect id="Rectangle-Copy" x="7" y="0" width="7" height="7"></rect>
                    <rect id="Rectangle-Copy-12" x="0" y="0" width="7" height="7"></rect>
                    <rect id="Rectangle-Copy-13" x="0" y="7" width="7" height="7"></rect>
                    <rect id="Rectangle-Copy-8" x="35" y="7" width="7" height="7"></rect>
                    <rect id="Rectangle-Copy-2" x="0" y="14" width="7" height="7"></rect>
                    <rect id="Rectangle-Copy-10" x="35" y="14" width="7" height="7"></rect>
                    <rect id="Rectangle-Copy-3" x="0" y="21" width="7" height="7"></rect>
                    <rect id="Rectangle-Copy-11" x="35" y="21" width="7" height="7"></rect>
                    <rect id="Rectangle-Copy-4" x="0" y="28" width="7" height="7"></rect>
                    <rect id="Rectangle-Copy-9" x="35" y="28" width="7" height="7"></rect>
                    <rect id="Rectangle-Copy-5" x="0" y="35" width="7" height="7"></rect>
                    <rect id="Rectangle-Copy-14" x="7" y="35" width="7" height="7"></rect>
                    <rect id="Rectangle-Copy-15" x="14" y="35" width="7" height="7"></rect>
                    <rect id="Rectangle-Copy-6" x="21" y="35" width="7" height="7"></rect>
                    <rect id="Rectangle-Copy-18" x="28" y="35" width="7" height="7"></rect>
                    <rect id="Rectangle-Copy-19" x="35" y="35" width="7" height="7"></rect>
                </g>
            </g>
        </g>
    </g>
</svg>