<?xml version="1.0" encoding="UTF-8"?>
<svg width="110px" height="90px" viewBox="0 0 110 90" version="1.1" xmlns="http://www.w3.org/2000/svg" xmlns:xlink="http://www.w3.org/1999/xlink">
    <!-- Generator: Sketch 64 (93537) - https://sketch.com -->
    <title>Elements / button 2</title>
    <desc>Created with Sketch.</desc>
    <g id="1920x1080" stroke="none" stroke-width="1" fill="none" fill-rule="evenodd">
        <g id="05" transform="translate(-693.000000, -770.000000)" fill="#97CF26">
            <g id="Elements-/-Right" transform="translate(693.000000, 770.000000)">
                <polygon id="Fill-1" points="99.17 -2.58379177e-14 89.2490909 -2.58379177e-14 89.2490909 9.92090909 79.3281818 9.92090909 79.3281818 19.8409091 79.3281818 29.7618182 69.4081818 29.7618182 69.4081818 39.6827273 69.4445455 39.6827273 69.4445455 49.6027273 59.5236364 49.6027273 59.5236364 59.5236364 49.6036364 59.5236364 49.6036364 69.4436364 49.6036364 79.3654545 39.6827273 79.3654545 39.6827273 69.4436364 39.6827273 59.5236364 29.7618182 59.5236364 29.7618182 49.6027273 19.8418182 49.6027273 19.8418182 39.6827273 9.92 39.6827273 0 39.6827273 0 49.6027273 9.92 49.6027273 9.92 59.5236364 19.8418182 59.5236364 19.8418182 69.4436364 19.8418182 79.3654545 29.7618182 79.3654545 29.7618182 89.2854545 39.6827273 89.2854545 49.6036364 89.2854545 59.5236364 89.2854545 59.5236364 79.3654545 69.4445455 79.3654545 69.4445455 69.4436364 69.4445455 59.5236364 79.3654545 59.5236364 79.3654545 49.6027273 89.2854545 49.6027273 89.2854545 39.6827273 89.2490909 39.6827273 89.2490909 29.7618182 99.17 29.7618182 99.17 19.8409091 99.17 9.92090909 109.090909 9.92090909 109.090909 -2.58379177e-14"></polygon>
            </g>
        </g>
    </g>
</svg>