<?xml version="1.0" encoding="UTF-8"?>
<svg width="100px" height="90px" viewBox="0 0 100 90" version="1.1" xmlns="http://www.w3.org/2000/svg" xmlns:xlink="http://www.w3.org/1999/xlink">
    <!-- Generator: Sketch 64 (93537) - https://sketch.com -->
    <title>Elements / button 1</title>
    <desc>Created with Sketch.</desc>
    <g id="1920x1080" stroke="none" stroke-width="1" fill="none" fill-rule="evenodd">
        <g id="06" transform="translate(-266.000000, -770.000000)" fill="#FF6163">
            <g id="Elements-/-wrong" transform="translate(266.000000, 770.000000)">
                <polygon id="Fill-1" points="80 0 80 10 70 10 70 20 60 20 60 30 50 30 40 30 40 20 30 20 30 10 20 10 20 0 -8.28966525e-14 0 -8.28966525e-14 10 10 10 10 20 20 20 20 30 30 30 30 40 40 40 40 50 30 50 30 60 20 60 20 70 10 70 10 80 -8.28966525e-14 80 -8.28966525e-14 90 10 90 20 90 20 80 30 80 30 70 40 70 40 60 50 60 60 60 60 70 70 70 70 80 80 80 80 90 90 90 99.9991667 90 99.9991667 80 90 80 90 70 80 70 80 60 70 60 70 50 60 50 60 40 70 40 70 30 80 30 80 20 90 20 90 10 99.9991667 10 99.9991667 0"></polygon>
            </g>
        </g>
    </g>
</svg>