<?xml version="1.0" encoding="UTF-8"?>
<svg width="470px" height="322px" viewBox="0 0 470 322" version="1.1" xmlns="http://www.w3.org/2000/svg" xmlns:xlink="http://www.w3.org/1999/xlink">
    <!-- Generator: Sketch 62 (91390) - https://sketch.com -->
    <title>Group 10</title>
    <desc>Created with Sketch.</desc>
    <g id="Symbols" stroke="none" stroke-width="1" fill="none" fill-rule="evenodd">
        <g id="Elements-/-joypad">
            <g id="Group-10">
                <polygon id="Fill-1" fill="#FFFFFF" points="222.4125 -0.0001 222.4125 24.7119 222.4125 49.4249 222.4125 74.1369 197.7005 74.1369 172.9885 74.1369 148.2755 74.1369 123.5625 74.1369 98.8495 74.1369 74.1375 74.1369 74.1375 98.8509 74.1375 123.5629 49.4255 123.5629 49.4255 148.2749 49.4255 172.9879 24.7125 172.9879 24.7125 197.6999 24.7125 222.4119 0.0005 222.4119 0.0005 247.1259 0.0005 271.8379 0.0005 296.5509 0.0005 321.2629 24.7125 321.2629 49.4255 321.2629 74.1375 321.2629 98.8495 321.2629 98.8495 296.5509 123.5625 296.5509 123.5625 271.8379 148.2755 271.8379 148.2755 247.1259 172.9885 247.1259 197.7005 247.1259 222.4125 247.1259 247.1255 247.1259 271.8385 247.1259 296.5505 247.1259 321.2635 247.1259 321.2635 271.8379 345.9765 271.8379 345.9765 296.5509 370.6885 296.5509 370.6885 321.2629 395.4005 321.2629 420.1135 321.2629 444.8265 321.2629 469.5395 321.2629 469.5395 222.4119 444.8265 222.4119 444.8265 197.6999 444.8265 172.9879 420.1135 172.9879 420.1135 148.2749 420.1135 123.5629 395.4005 123.5629 395.4005 98.8509 395.4005 74.1369 370.6885 74.1369 345.9765 74.1369 321.2635 74.1369 296.5505 74.1369 271.8385 74.1369 247.1255 74.1369 247.1255 49.4249 247.1255 24.7119 247.1255 -0.0001"></polygon>
                <polygon id="Fill-2" fill="#97CF26" points="247.125 172.988 271.838 172.988 271.838 148.275 247.125 148.275"></polygon>
                <polygon id="Fill-3" fill="#A169F7" points="296.551 222.413 321.263 222.413 321.263 197.701 296.551 197.701"></polygon>
                <polygon id="Fill-4" fill="#FF6163" points="345.976 172.988 370.689 172.988 370.689 148.275 345.976 148.275"></polygon>
                <polygon id="Fill-5" fill="#00AAFF" points="296.551 123.563 321.263 123.563 321.263 98.851 296.551 98.851"></polygon>
                <polygon id="Fill-6" fill="#181716" points="123.563 197.7003 123.563 222.4123 148.276 222.4123 148.276 197.7003 148.276 172.9883 123.563 172.9883"></polygon>
                <polygon id="Fill-7" fill="#181716" points="98.8501 148.275 74.1371 148.275 74.1371 172.988 98.8501 172.988 123.5631 172.988 123.5631 148.275"></polygon>
                <polygon id="Fill-8" fill="#181716" points="148.2759 123.5626 148.2759 98.8506 123.5629 98.8506 123.5629 123.5626 123.5629 148.2746 148.2759 148.2746"></polygon>
                <polygon id="Fill-9" fill="#181716" points="172.9878 148.275 148.2758 148.275 148.2758 172.988 172.9878 172.988 197.7008 172.988 197.7008 148.275"></polygon>
            </g>
        </g>
    </g>
</svg>