<?xml version="1.0" encoding="UTF-8"?>
<svg width="250px" height="51px" viewBox="0 0 250 51" version="1.1" xmlns="http://www.w3.org/2000/svg" xmlns:xlink="http://www.w3.org/1999/xlink">
    <!-- Generator: Sketch 64 (93537) - https://sketch.com -->
    <title>TEXT / 02</title>
    <desc>Created with Sketch.</desc>
    <g id="1920x1080" stroke="none" stroke-width="1" fill="none" fill-rule="evenodd">
        <g id="02" transform="translate(-35.000000, -259.000000)">
            <g id="TEXT-/-ready" transform="translate(35.000000, 259.000000)">
                <g id="Group-63">
                    <path d="M230.484314,0.150188537 L226.36497,0.155656109 L226.364781,0.155656109 L218.240158,18.425641 L221.713386,40.7256033 L224.959427,40.7282428 L222.440573,45.3958522 L223.180581,50.1464178 L239.172851,50.1669683 L249.864404,33.8703997 L248.818024,28.795362 L244.748265,28.7946078 L247.791252,23.8140271 L247.791252,23.8138386 L242.909087,0.133597285 L230.484314,0.150188537 Z M205.651735,0.183371041 L204.0569,4.75652338 L203.509766,4.75708899 L200.743741,4.76010558 L200.743741,4.76029412 L197.6227,14.1294495 L196.305015,14.1303922 L195.887594,10.5872172 L195.748643,9.40603318 L195.747511,9.40603318 L190.170023,9.41074661 L189.890611,6.81628959 L189.6704,4.77236048 L184.13552,4.77839367 L183.923416,2.60720211 L183.689442,0.212782805 L181.864593,0.215233786 L178.210181,0.220135747 L178.210181,0.220324284 L174.785596,15.6701735 L173.924925,4.78951735 L168.399095,4.79555053 L168.08405,0.233710407 L135.289932,0.277639517 L134.876471,18.4569382 L135.127979,50.0323529 L166.837066,50.073454 L167.877225,45.338914 L171.803507,45.3428733 L175.822738,28.7829186 L175.69227,27.1343514 L179.938876,27.13454 L180.32368,31.5857089 L185.465271,31.5874057 L185.507315,32.0291478 L181.514857,45.3528658 L181.925113,50.0928733 L197.847813,50.1136124 L199.776169,45.3720965 L202.577451,45.3749246 L206.495626,36.1154977 L206.63948,36.1156863 L210.445664,27.1371795 L210.571983,27.1371795 L218.10856,9.38699095 L216.651923,0.168665158 L205.651735,0.183371041 Z M111.524661,0.309313725 L97.9121041,0.32760181 L97.7756033,2.62417044 L97.6417421,4.87322775 L93.5376697,4.87794118 L92.1668175,4.87926094 L91.2825792,17.6149321 L87.8779789,0.341176471 L49.9492459,0.391704374 L49.9492459,0.391892911 L48.0506787,13.2800905 L44.6600302,4.93129713 L44.6600302,4.93148567 L41.865724,4.93450226 L39.9660256,0.405279035 L7.61383861,0.448453997 L0.124962293,33.7616139 L0.124962293,33.7616139 L11.641365,49.8726621 L27.2731523,49.8928356 L29.6753017,36.01727 L29.9611237,36.0174585 L37.7109351,49.9064103 L48.1602187,49.9197964 L49.1687029,42.614178 L52.5936652,49.925641 L89.2782428,49.9731523 L89.6036576,45.257089 L87.4043741,36.0493213 L90.2390271,36.0508296 L90.3383861,34.611727 L93.7309201,49.9788084 L98.9824284,49.9855958 L99.4754525,40.6281297 L113.884766,40.6396305 L114.766176,50.0059578 L130.570098,50.0265083 L130.578205,4.83721719 L128.13948,4.83985671 L125.238839,4.8428733 L125.12779,0.292533937 L125.12779,0.291214178 L111.524661,0.309313725 Z M88.6511689,22.770098 L90.9249246,22.7699095 L90.3719457,30.7371041 L88.6511689,22.770098 Z" id="Fill-1" fill="#E33230"></path>
                    <polygon id="Fill-2" fill="#E2007D" points="39.9659691 0.405147059 47.5506222 18.4898002 46.9214744 22.7763763 39.215592 4.93738688"></polygon>
                    <polygon id="Fill-3" fill="#8F0059" points="32.1387443 14.2294872 40.5684201 31.5413273 30.4509615 31.5381222 21.0770928 14.236086"></polygon>
                    <polygon id="Fill-4" fill="#8F0059" points="33.7681938 4.94342006 41.6311275 22.1197021 32.2627262 22.2573341 22.8888575 4.95529789"></polygon>
                    <polygon id="Fill-5" fill="#8F0059" points="33.7681938 4.94342006 41.932221 22.7771305 40.5683446 31.5414593 32.1386689 14.2294306"></polygon>
                    <polygon id="Fill-6" fill="#E2007D" points="22.8888386 4.9553356 32.2627074 22.2573718 30.4508673 31.5381033 21.077187 14.2360671"></polygon>
                    <polygon id="Fill-7" fill="#E2007D" points="44.6598793 4.93144796 51.9074284 22.7757164 50.6968326 31.5445701 43.2134238 14.2227376"></polygon>
                    <polygon id="Fill-8" fill="#8F0059" points="43.2134427 14.2227941 50.6968514 31.5446267 45.6342572 31.5429299 37.6776207 14.2261878"></polygon>
                    <polygon id="Fill-9" fill="#8F0059" points="25.7277526 18.9901207 34.7748869 36.020098 29.6753394 36.01727 20.1485671 18.992006"></polygon>
                    <polygon id="Fill-10" fill="#E2007D" points="30.4535068 23.8340875 39.1620287 40.5801282 34.0260935 40.5759804 24.8300151 23.8346531"></polygon>
                    <polygon id="Fill-11" fill="#E2007D" points="37.6775641 14.2261312 45.6342006 31.5430618 44.3067119 40.5841629 36.0868778 23.8335973"></polygon>
                    <polygon id="Fill-12" fill="#E2007D" points="20.1486048 18.9920626 29.6753771 36.0173265 27.2732278 49.8928922 17.2638009 33.7690234"></polygon>
                    <polygon id="Fill-13" fill="#8F0059" points="17.2638386 33.7690045 27.2732655 49.8928733 11.6414781 49.8726998 0.125263952 33.761463"></polygon>
                    <polygon id="Fill-14" fill="#8F0059" points="40.168684 33.778997 48.1601998 49.9198341 37.7109163 49.906448 28.709408 33.774095"></polygon>
                    <polygon id="Fill-15" fill="#E2007D" points="41.7171192 23.8330505 49.448454 40.5883296 48.160181 49.9199661 40.1686652 33.7789404"></polygon>
                    <polygon id="Fill-16" fill="#E2007D" points="87.8781109 0.341025641 91.4520173 18.47319 91.1554487 22.7697587 87.5244155 4.88438914"></polygon>
                    <polygon id="Fill-17" fill="#8F0059" points="87.5244155 4.88442685 91.1554487 22.7697964 71.1322587 22.772813 65.6539404 4.90837104"></polygon>
                    <polygon id="Fill-18" fill="#E2007D" points="65.6539404 4.90840875 71.1322587 22.7728507 70.2171003 31.5507541 64.5604261 14.2098793"></polygon>
                    <polygon id="Fill-19" fill="#E2007D" points="86.7995475 14.1964932 90.5491704 31.5571644 90.2388386 36.0509427 86.4279412 18.9689291"></polygon>
                    <polygon id="Fill-20" fill="#8F0059" points="86.4279977 18.9688537 90.2388952 36.0510558 69.7492647 36.0395551 64.0000189 18.9767722"></polygon>
                    <polygon id="Fill-21" fill="#E2007D" points="64.0000189 18.9767157 69.7492647 36.0394985 68.7907428 45.2353884 62.8493778 28.7638575"></polygon>
                    <polygon id="Fill-22" fill="#8F0059" points="85.2735671 33.7986614 89.278092 49.9730581 52.5937029 49.9255468 45.0311086 33.7811275"></polygon>
                    <polygon id="Fill-23" fill="#E2007D" points="85.6651961 28.7676659 89.603733 45.2571078 89.2781297 49.9731712 85.2736048 33.798586"></polygon>
                    <polygon id="Fill-24" fill="#E2007D" points="230.525283 23.8155732 221.713443 40.725641 218.240215 18.4254902 226.364838 0.155693816"></polygon>
                    <polygon id="Fill-25" fill="#8F0059" points="247.791139 23.8139894 237.451395 40.7381976 221.713462 40.7257541 230.525302 23.8154977"></polygon>
                    <polygon id="Fill-26" fill="#E2007D" points="222.440649 45.3957202 223.180656 50.1462858 232.291893 33.8629148 231.40049 28.792402"></polygon>
                    <polygon id="Fill-27" fill="#8F0059" points="223.180637 50.1463424 239.172907 50.1670814 249.864272 33.8705128 232.291874 33.8627828"></polygon>
                    <polygon id="Fill-28" fill="#E2007D" points="206.281882 4.75412896 199.814498 22.7537519 199.286784 18.4326735 205.651603 0.183427602"></polygon>
                    <polygon id="Fill-29" fill="#E2007D" points="179.016214 9.42041855 174.845777 27.1342195 174.171192 18.4421003 178.210219 0.220192308"></polygon>
                    <polygon id="Fill-30" fill="#8F0059" points="184.588179 9.41564857 179.938857 27.13454 174.84572 27.1341629 179.016158 9.42036199"></polygon>
                    <polygon id="Fill-31" fill="#8F0059" points="218.108899 9.38708522 210.571946 27.1370852 205.462594 27.1367081 212.517081 9.39179864"></polygon>
                    <polygon id="Fill-32" fill="#E2007D" points="185.049208 14.1372172 180.323906 31.5857466 179.938914 27.1345777 184.588235 9.41568627"></polygon>
                    <polygon id="Fill-33" fill="#8F0059" points="190.67862 14.1338235 185.465385 31.5874434 180.323793 31.5857466 185.049284 14.1372172"></polygon>
                    <polygon id="Fill-34" fill="#E2007D" points="201.940931 14.1270362 195.750321 31.5906486 194.749755 22.7544872 200.743533 4.76014329"></polygon>
                    <polygon id="Fill-35" fill="#E2007D" points="191.195437 18.9321644 185.896229 36.1041101 185.465234 31.5873303 190.678658 14.1338989"></polygon>
                    <polygon id="Fill-36" fill="#8F0059" points="196.870136 18.9301848 191.074887 36.1070324 185.896154 36.1042044 191.195362 18.9320701"></polygon>
                    <polygon id="Fill-37" fill="#8F0059" points="213.927583 18.9242081 206.639498 36.1155732 201.446437 36.1127451 208.236218 18.9262821"></polygon>
                    <polygon id="Fill-38" fill="#E2007D" points="197.445701 23.8186275 191.55411 40.7017345 191.074849 36.107089 196.870098 18.9302413"></polygon>
                    <polygon id="Fill-39" fill="#E2007D" points="192.256882 28.7857278 186.779317 45.358503 186.334559 40.6974925 191.721814 23.8190988"></polygon>
                    <polygon id="Fill-40" fill="#8F0059" points="209.596022 28.7886501 202.577545 45.375 197.310765 45.3695324 203.815102 28.7877074"></polygon>
                    <polygon id="Fill-41" fill="#E2007D" points="181.514913 45.3531297 181.924793 50.0929487 186.973624 33.8429487 186.479657 28.7846908"></polygon>
                    <polygon id="Fill-42" fill="#8F0059" points="181.924849 50.0928922 197.847738 50.1136312 204.462179 33.8506222 186.97368 33.8430807"></polygon>
                    <polygon id="Fill-43" fill="#8F0059" points="152.788386 28.7790535 150.808748 45.3210973 150.028959 22.7611425 151.853808 4.81393288"></polygon>
                    <polygon id="Fill-44" fill="#E2007D" points="164.298548 28.8666101 161.300245 45.3319193 161.47615 28.779129 162.882824 4.80175339"></polygon>
                    <polygon id="Fill-45" fill="#8F0059" points="164.298548 28.7809955 161.300245 45.3319005 150.808729 45.3209653 152.788367 28.7791101"></polygon>
                    <polygon id="Fill-46" fill="#8F0059" points="162.882862 4.80177225 161.476188 28.7791478 152.788405 28.7791478 151.853827 4.81383861"></polygon>
                    <polygon id="Fill-47" fill="#8F0059" points="175.82287 28.7829374 171.80345 45.3428922 166.547229 45.3374246 170.055524 28.7819947"></polygon>
                    <polygon id="Fill-48" fill="#E2007D" points="134.876452 18.4569759 135.12796 50.0325792 135.591384 33.8206637 135.289913 0.277677225"></polygon>
                    <polygon id="Fill-49" fill="#8F0059" points="135.127922 50.0324849 166.83701 50.0733974 170.404506 33.8358409 135.591346 33.8205694"></polygon>
                    <polygon id="Fill-50" fill="#E2007D" points="125.127771 0.291176471 125.570645 18.4604827 125.533692 22.7647813 125.084031 4.84321267"></polygon>
                    <polygon id="Fill-51" fill="#8F0059" points="113.962123 9.47588612 115.365781 27.1293552 100.187236 27.1280354 97.3672888 9.4900264"></polygon>
                    <polygon id="Fill-52" fill="#E2007D" points="97.3673643 9.4900264 100.187311 27.1280354 99.7167232 36.0562029 96.8038273 18.9651395"></polygon>
                    <polygon id="Fill-53" fill="#8F0059" points="113.537726 23.8263952 115.01152 40.6404977 99.4756976 40.6282428 96.5145362 23.8279035"></polygon>
                    <polygon id="Fill-54" fill="#8F0059" points="93.7309766 49.978865 98.9822964 49.9856523 95.9212104 33.8033371 90.159144 33.8006976"></polygon>
                    <polygon id="Fill-55" fill="#E2007D" points="95.9212481 33.8032994 98.9823341 49.9856146 99.4757353 40.6281486 96.5143854 23.8279977"></polygon>
                    <polygon id="Fill-56" fill="#8F0059" points="114.766101 50.0060143 130.570023 50.0265649 130.588499 33.8184201 113.242345 33.8108786"></polygon>
                    <path d="M227.374076,5.89583333 L228.675924,13.299868 L245.623511,13.299868 L244.096927,5.89583333 L227.374076,5.89583333 Z M200.888782,5.89583333 L201.835238,13.299868 L213.095419,13.299868 L212.516987,9.39187406 L218.108993,9.38716063 L217.557146,5.89583333 L200.888782,5.89583333 Z M178.70741,5.89583333 L179.016233,9.42053167 L184.588254,9.41581825 L184.967402,13.299868 L196.207032,13.299868 L195.748699,9.40601433 L190.170079,9.41072775 L189.791497,5.89583333 L178.70741,5.89583333 Z M162.947417,5.89583333 L163.384634,13.299868 L174.598247,13.299868 L174.012462,5.89583333 L162.947417,5.89583333 Z M135.340517,5.89583333 L135.406882,13.299868 L152.184785,13.299868 L151.895946,5.89583333 L135.340517,5.89583333 Z M92.0963612,5.89583333 L91.582221,13.299868 L97.1406674,13.299868 L97.3672888,9.49010181 L113.962123,9.475773 L113.849001,13.299868 L130.581278,13.299868 L130.578639,5.89583333 L92.0963612,5.89583333 Z M49.1385935,5.89583333 L48.0479072,13.299868 L64.6674397,13.299868 L65.5379148,5.89583333 L49.1385935,5.89583333 Z M33.6010747,5.89583333 L32.3018665,13.299868 L43.3571078,13.299868 L44.5098228,5.89583333 L33.6010747,5.89583333 Z M6.38934766,5.89583333 L4.7247549,13.299868 L21.2600113,13.299868 L22.7053356,5.89583333 L6.38934766,5.89583333 Z" id="Fill-57" fill="#E54D25"></path>
                    <path d="M226.364725,0.155618401 L227.374152,5.89581448 L244.097002,5.89581448 L242.909031,0.133559578 L226.364725,0.155618401 Z M205.651867,0.18352187 L206.281957,4.75422323 L200.743495,4.76006787 L200.888669,5.89581448 L217.557221,5.89581448 L216.651867,0.168627451 L205.651867,0.18352187 Z M178.210124,0.220098039 L178.707296,5.89581448 L189.791384,5.89581448 L189.670343,4.77232278 L184.135464,4.77854449 L183.689385,0.212745098 L178.210124,0.220098039 Z M135.289876,0.27760181 L135.340403,5.89581448 L151.896022,5.89581448 L151.85379,4.8138009 L162.882824,4.80173454 L162.947492,5.89581448 L174.012538,5.89581448 L173.924868,4.78966817 L168.399227,4.79551282 L168.083993,0.2336727 L135.289876,0.27760181 Z M97.9120475,0.327564103 L97.6418741,4.87337858 L92.1667609,4.87941176 L92.0962481,5.89581448 L130.578526,5.89581448 L130.578526,4.83717949 L125.083993,4.84302413 L125.127734,0.291176471 L97.9120475,0.327564103 Z M49.9493778,0.391855204 L49.1384804,5.89581448 L65.5378017,5.89581448 L65.6539404,4.90844646 L87.5244155,4.88431373 L87.8781109,0.341138763 L49.9493778,0.391855204 Z M7.61378205,0.44841629 L6.38923454,5.89581448 L22.7052225,5.89581448 L22.8888575,4.95520362 L33.7681938,4.94332579 L33.6009615,5.89581448 L44.5097097,5.89581448 L44.6599736,4.93144796 L39.2154035,4.93748115 L39.9659691,0.40505279 L7.61378205,0.44841629 Z" id="Fill-58" fill="#E33230"></path>
                    <path d="M228.675999,13.2999623 L229.977847,20.703997 L247.149981,20.703997 L245.623586,13.2999623 L228.675999,13.2999623 Z M201.835124,13.2999623 L201.940894,14.1270739 L196.30477,14.1304676 L196.207108,13.2999623 L184.967477,13.2999623 L185.049302,14.1372549 L190.678827,14.1338612 L191.195419,18.9321267 L196.870004,18.9302413 L197.078903,20.703997 L208.481241,20.703997 L208.236143,18.9260935 L213.927696,18.9242081 L213.095305,13.2999623 L201.835124,13.2999623 Z M163.384521,13.2999623 L163.821738,20.703997 L175.183918,20.703997 L174.598133,13.2999623 L163.384521,13.2999623 Z M135.406957,13.2999623 L135.473511,20.703997 L152.473511,20.703997 L152.184672,13.2999623 L135.406957,13.2999623 Z M113.848888,13.2999623 L113.681467,18.959276 L96.8038273,18.9651207 L97.1407428,13.2999623 L91.5822964,13.2999623 L91.0683446,20.703997 L130.583805,20.703997 L130.581165,13.2999623 L113.848888,13.2999623 Z M48.0479827,13.2999623 L46.9572964,20.703997 L63.7968514,20.703997 L63.9999057,18.9766214 L86.4280732,18.9688914 L86.7996795,14.1964555 L64.5604261,14.2100302 L64.6673265,13.2999623 L48.0479827,13.2999623 Z M32.3017534,13.2999623 L32.1386689,14.2294495 L21.0772059,14.2360483 L21.2598982,13.2999623 L4.72483032,13.2999623 L3.06042609,20.703997 L19.8143854,20.703997 L20.1486614,18.9920814 L25.7276584,18.9901961 L25.4101621,20.703997 L36.6051094,20.703997 L37.6776961,14.2260558 L43.2133296,14.2228507 L43.3569947,13.2999623 L32.3017534,13.2999623 Z" id="Fill-59" fill="#F08F1A"></path>
                    <path d="M229.977922,20.7040913 L230.525057,23.8155166 L247.791082,23.8140083 L247.150057,20.7040913 L229.977922,20.7040913 Z M197.078978,20.7040913 L197.445683,23.8187217 L191.721889,23.8190988 L192.183993,28.1081259 L209.502055,28.1081259 L208.481316,20.7040913 L197.078978,20.7040913 Z M163.821625,20.7040913 L164.258842,28.1081259 L175.769589,28.1081259 L175.183805,20.7040913 L163.821625,20.7040913 Z M135.473586,20.7040913 L135.539951,28.1081259 L152.762236,28.1081259 L152.473397,20.7040913 L135.473586,20.7040913 Z M91.0682315,20.7040913 L90.5542798,28.1081259 L96.2599736,28.1081259 L96.514687,23.82796 L113.537689,23.8264517 L113.410992,28.1081259 L130.58652,28.1081259 L130.58388,20.7040913 L91.0682315,20.7040913 Z M46.9573718,20.7040913 L45.8666855,28.1081259 L62.9266403,28.1081259 L63.7969268,20.7040913 L46.9573718,20.7040913 Z M25.410049,20.7040913 L24.8301094,23.8345588 L30.4536011,23.8339932 L29.7036011,28.1081259 L41.0516403,28.1081259 L41.7171757,23.8330505 L36.0870852,23.8336161 L36.6051848,20.7040913 L25.410049,20.7040913 Z M3.06031297,20.7040913 L1.39590875,28.1081259 L18.368948,28.1081259 L19.8144608,20.7040913 L3.06031297,20.7040913 Z" id="Fill-60" fill="#F7B041"></path>
                    <path d="M192.183899,28.1082202 L192.256863,28.785822 L186.479713,28.7846908 L186.973492,33.8429487 L204.461991,33.8506787 L203.815121,28.7877074 L209.596041,28.7886501 L209.502149,28.1082202 L192.183899,28.1082202 Z M164.258748,28.1082202 L164.298529,28.7809201 L152.788348,28.7790347 L152.762142,28.1082202 L135.540045,28.1082202 L135.591327,33.8205128 L170.404299,33.8359729 L170.055505,28.7820513 L175.822851,28.7828054 L175.769495,28.1082202 L164.258748,28.1082202 Z M113.411086,28.1082202 L113.242345,33.8108974 L130.588499,33.8184389 L130.586425,28.1082202 L113.411086,28.1082202 Z M90.5543741,28.1082202 L90.1592006,33.8007164 L95.921267,33.803356 L96.2600679,28.1082202 L90.5543741,28.1082202 Z M45.8665913,28.1082202 L45.0309955,33.7811086 L85.2736425,33.7986425 L85.6652338,28.7675339 L62.8494344,28.7639517 L62.926546,28.1082202 L45.8665913,28.1082202 Z M29.7035068,28.1082202 L28.7093514,33.7739442 L40.168816,33.7790347 L41.051546,28.1082202 L29.7035068,28.1082202 Z M1.39600302,28.1082202 L0.125075415,33.7615008 L17.2638386,33.7690422 L18.3690422,28.1082202 L1.39600302,28.1082202 Z M232.291931,33.8629336 L249.864329,33.8704751 L248.817949,28.7952489 L231.400339,28.7924208 L232.291931,33.8629336 Z" id="Fill-61" fill="#FBE834"></path>
                    <path d="M231.400207,28.7923643 L232.291799,33.8628771 L249.864385,33.8704186 L248.818005,28.7953808 L231.400207,28.7923643 Z M21.0770551,14.2361802 L22.8888952,4.95526018 L33.7682315,4.94338235 L32.1387066,14.2293929 L21.0770551,14.2361802 Z M39.9660068,0.405109351 L7.61381976,0.448472851 L0.124943439,33.7616327 L17.2638952,33.7689857 L20.1485106,18.9920249 L25.7276961,18.9901395 L24.8300716,23.8345965 L30.4535633,23.8340309 L28.709408,33.7740762 L40.168684,33.7789781 L41.717138,23.8330882 L36.086859,23.8334653 L37.6775452,14.2261878 L43.2133673,14.2227941 L44.6598228,4.93150452 L39.2154412,4.93734917 L39.9660068,0.405109351 Z M87.87796,0.341006787 L49.949227,0.391723228 L45.031052,33.781052 L85.2735106,33.798586 L85.6651018,28.7676659 L62.849491,28.7637066 L63.9999434,18.9767534 L86.4279223,18.9688348 L86.7995287,14.1963989 L64.5604638,14.2099736 L65.6539781,4.90850302 L87.5244532,4.88437029 L87.87796,0.341006787 Z M96.803865,18.9652526 L97.367402,9.48995098 L113.962048,9.47581071 L113.681505,18.9592195 L96.803865,18.9652526 Z M125.127771,0.291233032 L97.9120852,0.327620664 L97.6419118,4.87324661 L92.1667986,4.87927979 L90.1592572,33.8008484 L95.9213235,33.8032994 L96.5146493,23.8279977 L113.537651,23.8264894 L113.242402,33.8108409 L130.588556,33.8183824 L130.578186,4.83723605 L125.084031,4.84326923 L125.127771,0.291233032 Z M164.298586,28.781052 L152.788405,28.7789781 L151.853827,4.81385747 L162.882862,4.8017911 L164.298586,28.781052 Z M168.084031,0.233729261 L135.289913,0.277658371 L135.591384,33.8206448 L170.404544,33.8359163 L170.055562,28.7819947 L175.822907,28.7829374 L173.924906,4.78972474 L168.399265,4.79575792 L168.084031,0.233729261 Z M216.651904,0.168684012 L205.651904,0.183389894 L206.281995,4.75409125 L200.743533,4.76031297 L201.940931,14.1270173 L196.304808,14.130411 L195.748624,9.40624057 L190.170004,9.410954 L189.670381,4.77237934 L184.135502,4.77841252 L183.689423,0.212801659 L178.210162,0.2201546 L179.016158,9.42038084 L184.588179,9.41566742 L185.049152,14.1371983 L190.678865,14.1338047 L191.195456,18.9322587 L196.87023,18.9301848 L197.445645,23.8187594 L191.721851,23.8191365 L192.256919,28.7857655 L186.479581,28.7846342 L186.97336,33.8430807 L204.462048,33.8506222 L203.814989,28.7876508 L209.596097,28.7885935 L208.23618,18.9262255 L213.927545,18.9241516 L212.5171,9.39191176 L218.108918,9.3870098 L216.651904,0.168684012 Z M242.909069,0.133616139 L226.364762,0.155674962 L230.525019,23.8155543 L247.791233,23.814046 L242.909069,0.133616139 Z M232.298775,29.5467006 L248.203563,29.5493401 L248.938669,33.1158937 L232.925094,33.1089178 L232.298775,29.5467006 L232.298775,29.5467006 Z M20.1613311,14.9908937 L21.0774321,14.9903281 L32.1390837,14.9835407 L32.7721908,14.9831637 L32.8815422,14.3598605 L34.5108786,5.07366139 L34.666233,4.18829186 L33.7672888,4.18923454 L22.8879525,4.20111237 L22.2676659,4.20186652 L22.1486991,4.81084087 L20.3370475,14.0917609 L20.1613311,14.9908937 L20.1613311,14.9908937 Z M39.0764894,1.16038839 L38.4714744,4.81423454 L38.3263009,5.69243967 L39.2163839,5.69149698 L43.7789781,5.68659502 L42.5676282,13.4690234 L37.6771682,13.47204 L37.0380279,13.472417 L36.9335784,14.1028846 L35.3428922,23.7103507 L35.1975302,24.5878017 L36.0870475,24.5876131 L40.8364819,24.587236 L39.5229449,33.0246418 L29.607221,33.0203054 L31.1962104,23.9644985 L31.3513763,23.0798831 L30.4533748,23.0798831 L25.7367459,23.0804487 L26.4694005,19.127583 L26.6347474,18.2356146 L25.7275075,18.2359917 L20.148322,18.2378771 L19.5274698,18.2380656 L19.408503,18.8476056 L16.6428544,33.0146493 L1.06743967,33.007862 L8.21732655,1.20167798 L39.0764894,1.16038839 L39.0764894,1.16038839 Z M87.0629148,1.09628582 L86.826678,4.13097662 L65.653224,4.1543552 L64.9831637,4.15492081 L64.9049208,4.82026772 L63.8114065,14.1219268 L63.7124246,14.9644985 L64.5608409,14.9641214 L85.9842949,14.9511124 L85.7301471,18.2150641 L63.9997549,18.2226056 L63.329506,18.2227941 L63.2510747,18.8887066 L62.1004336,28.6756599 L62.0014517,29.5178544 L62.8493024,29.5178544 L84.8500566,29.5216252 L84.5757353,33.0442496 L45.9045437,33.0272813 L50.6004336,1.14511689 L87.0629148,1.09628582 L87.0629148,1.09628582 Z M96.0033371,19.719589 L96.8042421,19.7194005 L113.681882,19.7133673 L114.413782,19.7131787 L114.435275,18.9816554 L114.715818,9.49824661 L114.739008,8.72109729 L113.961482,8.7216629 L97.3666478,8.73580317 L96.6566176,8.73655732 L96.6145739,9.44526772 L96.051037,18.9205694 L96.0033371,19.719589 L96.0033371,19.719589 Z M124.366459,1.04632353 L124.330072,4.83591629 L124.322719,5.59817119 L125.084974,5.59741704 L129.824227,5.59213801 L129.834031,33.064046 L114.018986,33.0570701 L114.291422,23.8487368 L114.314612,23.0721531 L113.537462,23.0723416 L96.5144608,23.0738499 L95.8040535,23.0738499 L95.7618213,23.7831259 L95.2107278,33.048963 L90.9675151,33.0470777 L92.8704186,5.63267345 L97.6426659,5.62739442 L98.3525075,5.62664027 L98.3945513,4.9181184 L98.6228695,1.08082579 L124.366459,1.04632353 L124.366459,1.04632353 Z M165.098548,29.5351998 L165.051414,28.7365573 L163.63569,4.75729638 L163.593646,4.04688914 L162.882108,4.04764329 L151.852885,4.05970965 L151.069702,4.0604638 L151.100245,4.84326923 L152.035011,28.8083899 L152.063103,29.5331259 L152.788405,29.5331259 L164.298586,29.5351998 L165.098548,29.5351998 L165.098548,29.5351998 Z M167.380222,0.988819759 L167.646814,4.84760558 L167.695268,5.55065988 L168.400019,5.54990573 L173.228262,5.5446267 L175.006731,28.0286011 L170.05575,28.0278469 L169.247492,28.0276584 L169.303299,28.8340309 L169.596474,33.0813914 L136.338933,33.0668741 L136.051037,1.03067496 L167.380222,0.988819759 L167.380222,0.988819759 Z M216.007673,0.92377451 L217.226188,8.63361614 L212.516346,8.63776395 L211.643232,8.6385181 L211.77106,9.50220588 L213.053488,18.1703808 L208.235992,18.1720777 L207.370984,18.1724548 L207.489197,19.0291667 L208.730901,28.0344457 L203.814989,28.033503 L202.958465,28.033503 L203.067063,28.8832391 L203.605336,33.0960973 L187.65756,33.0891214 L187.310841,29.5389706 L192.256731,29.5399133 L193.096663,29.5399133 L193.006542,28.7048831 L192.561595,24.5732843 L197.445833,24.5729072 L198.293873,24.5727187 L198.194702,23.7305241 L197.619099,18.8419495 L197.540667,18.1758484 L196.870041,18.176037 L191.87287,18.1777338 L191.428488,14.0531109 L191.355901,13.3792798 L190.678299,13.3796569 L185.733164,13.3826735 L185.338744,9.34232655 L185.272379,8.660954 L184.587613,8.66151961 L179.707146,8.66566742 L179.033126,0.973171192 L183.005411,0.967892157 L183.384747,4.85175339 L183.451489,5.53331448 L184.136256,5.53256033 L188.993156,5.5272813 L189.420192,9.49164781 L189.492779,10.1656674 L190.170569,10.1651018 L195.078186,10.160954 L195.556127,14.2186463 L195.634559,14.8849359 L196.305373,14.8845588 L201.941497,14.8811652 L202.797643,14.8805995 L202.689046,14.0314291 L201.600245,5.5135181 L206.282749,5.50823906 L207.147191,5.50729638 L207.028978,4.65115008 L206.516912,0.936406486 L216.007673,0.92377451 L216.007673,0.92377451 Z M242.294815,0.8885181 L246.865517,23.0598982 L231.158314,23.0614065 L227.262952,0.908691554 L242.294815,0.8885181 Z" id="Fill-62" fill="#FFFFFF"></path>
                </g>
            </g>
        </g>
    </g>
</svg>