<?xml version="1.0" encoding="UTF-8"?>
<svg width="1576px" height="262px" viewBox="0 0 1576 262" version="1.1" xmlns="http://www.w3.org/2000/svg" xmlns:xlink="http://www.w3.org/1999/xlink">
    <!-- Generator: Sketch 64 (93537) - https://sketch.com -->
    <title>TEXT / 03</title>
    <desc>Created with Sketch.</desc>
    <g id="1920x1080" stroke="none" stroke-width="1" fill="none" fill-rule="evenodd">
        <g id="07" transform="translate(-173.000000, -369.000000)">
            <g id="TEXT-/-you-win" transform="translate(172.000000, 276.000000)">
                <g id="Group-66" transform="translate(1.434941, 93.242812)">
                    <path d="M1471.34683,0.0767369818 L1442.47713,0.115105473 L1405.03266,65.4812407 L1391.41094,0.183971995 L1333.95176,0.260708977 L1313.07379,44.0853961 L1310.95295,32.2000182 L1309.51251,24.1170561 L1280.56711,24.1485379 L1276.56141,0.338429766 L1242.12858,0.383684909 L1190.616,0.452551431 L1190.616,0.453535239 L1157.42007,95.5522995 L1164.01659,149.514139 L1147.74211,149.511187 L1141.72767,149.510203 L1138.6354,122.580442 L1134.86962,89.7803011 L1156.17825,24.2852871 L1154.00039,6.84828373 L1153.20889,0.502725612 L1010.39423,0.693584259 L1010.39423,0.694568066 L992.467923,95.6142794 L993.953589,118.069685 L1020.25705,118.064766 L1022.61386,149.489543 L1021.49986,149.489543 L1001.73785,235.775361 L1003.36805,260.431543 L1141.43958,260.609612 L1169.08909,191.005234 L1177.60291,260.656835 L1232.95501,260.728653 L1275.17014,176.827585 L1276.89473,187.747848 L1303.97101,187.763589 L1316.16311,260.836872 L1371.70203,260.90869 L1409.59584,203.824246 L1411.19851,211.809811 L1433.04694,211.826536 L1416.09403,236.208236 L1421.06231,260.971653 L1504.58799,261.079872 L1574.13012,176.041523 L1567.33106,149.583005 L1540.828,149.578086 L1560.64311,123.553427 L1554.38974,99.2159985 L1528.89548,0 L1471.34683,0.0767369818 Z M954.144435,0.769337433 L944.644434,0.781143123 L932.277324,95.636907 L932.395312,98.2213692 L931.985304,98.2213692 L920.193386,98.2253044 L919.583781,83.5272209 L919.156075,73.2395463 L909.436813,73.2454492 L889.984523,73.2572549 L889.596146,60.8976817 L889.213668,48.7269997 L860.27121,48.7525787 L858.853387,73.2759472 L837.485759,73.2887367 L831.663051,73.2926719 L831.663051,73.2936557 L830.865649,98.2567862 L808.429246,98.2646567 L802.548527,98.2666243 L802.401042,0.97200177 L774.019027,1.01037026 L773.283568,88.2288368 L772.54516,175.691288 L774.814463,260.135417 L829.747712,260.206251 L830.648354,235.596308 L856.751234,235.623854 L858.352922,211.368081 L883.376212,211.387757 L884.053659,235.652385 L911.339369,235.681899 L912.246894,260.313486 L967.332545,260.385304 L983.894128,175.783765 L978.508959,88.26327 L973.123789,0.743758439 L954.144435,0.769337433 Z M628.058029,1.20516414 L599.830382,1.24353263 L592.397137,107.931549 L589.506431,149.416742 L560.443035,149.411823 L564.700436,95.7756238 L543.285612,1.3192858 L458.577106,1.43242366 L449.399605,78.361248 L431.651259,25.0811874 L422.182722,25.0910254 L414.72293,25.0998797 L406.498183,1.50227399 L265.8024,1.69116502 L263.325635,14.9273106 L261.391615,25.2681108 L233.089242,25.2986088 L231.187668,34.9536952 L213.927989,1.76003155 L157.827641,1.83480091 L152.528997,25.3871515 L129.906763,25.4127305 L124.258087,25.4186333 L112.914523,73.726531 L106.178391,73.7304663 L90.1723347,49.4087782 L88.4261122,56.5463014 L88.4251289,56.5463014 L90.1723347,49.4087782 L83.6888937,49.4146811 L67.7939426,25.4806132 L61.5631926,25.486516 L45.8206427,1.98532345 L45.8206427,1.98433965 L17.8437197,2.02270814 L4.83357537,49.48158 L59.5642791,123.693128 L42.8011329,123.695096 L36.3993003,148.848101 L36.2783626,149.322296 L6.8806673,149.317377 L0,175.353842 L70.4771865,259.223428 L151.70898,259.328695 L156.798196,234.892885 L183.713227,234.921416 L193.245675,187.144774 L219.730049,187.160515 L222.556845,172.34831 L260.403465,235.002088 L268.722603,235.009958 L283.286256,259.499877 L419.379523,259.674995 L422.368553,235.170319 L449.399605,235.198849 L454.818205,187.343503 L472.343357,235.223445 L488.519512,235.240169 L497.054961,259.776327 L633.711621,259.953413 L635.012439,235.392659 L662.19196,235.42119 L668.354867,95.7362715 L656.438078,1.16777945 L656.438078,1.16777945 L628.058029,1.20516414 Z" id="Fill-1" fill="#E33230"></path>
                    <polygon id="Fill-2" fill="#E2007D" points="46.371354 2.86900958 109.055505 96.8142523 103.85843 119.063898 40.1783439 26.3914686"></polygon>
                    <polygon id="Fill-3" fill="#8F0059" points="34.1405534 50.2076677 99.010919 142.015974 73.0058259 142.013997 5.73976342 50.2323827"></polygon>
                    <polygon id="Fill-4" fill="#E2007D" points="67.7768229 25.8210863 129.144677 118.070068 124.055105 140.58147 61.7024568 49.6529459"></polygon>
                    <polygon id="Fill-5" fill="#E2007D" points="213.542726 2.86900958 262.594177 97.0471418 254.395452 142.015974 203.761601 50.445316"></polygon>
                    <polygon id="Fill-6" fill="#8F0059" points="204.985359 50.2076677 255.419472 142.015974 229.341221 142.014001 176.497725 50.2323397"></polygon>
                    <polygon id="Fill-7" fill="#8F0059" points="55.8005531 74.5942492 119.100091 164.968051 92.9892764 164.960149 27.2638763 74.6120294"></polygon>
                    <polygon id="Fill-8" fill="#E2007D" points="90.6052381 50.2076677 150.66879 141.93562 145.695887 164.968051 84.6615105 74.6250856"></polygon>
                    <polygon id="Fill-9" fill="#8F0059" points="78.9582723 98.9808307 140.624204 187.920128 114.351947 187.905313 50.2229299 98.9907069"></polygon>
                    <polygon id="Fill-10" fill="#E2007D" points="175.528881 50.2076677 228.155596 141.629325 219.369002 187.920128 165.018198 99.321668"></polygon>
                    <polygon id="Fill-11" fill="#8F0059" points="165.144532 98.9808307 219.545951 187.920128 193.194881 187.905326 136.319381 98.9906986"></polygon>
                    <polygon id="Fill-12" fill="#E2007D" points="136.323001 98.9808307 193.717015 187.534082 184.146081 235.258786 124.839854 149.764924"></polygon>
                    <polygon id="Fill-13" fill="#8F0059" points="124.328284 149.193445 183.672429 235.258786 156.630465 235.231084 94.7060965 149.188498"></polygon>
                    <polygon id="Fill-14" fill="#E2007D" points="95.0575853 149.188498 156.408553 235.1073 151.342949 259.645367 88.966333 175.357629"></polygon>
                    <polygon id="Fill-15" fill="#8F0059" points="89.2742907 175.048255 152.103731 259.645367 70.6615558 259.539272 0 175.009585"></polygon>
                    <polygon id="Fill-16" fill="#8F0059" points="346.46368 25.8210863 384.564149 119.056006 332.721449 119.063898 289.858053 25.8832324"></polygon>
                    <polygon id="Fill-17" fill="#E2007D" points="406.44481 2.86900958 439.091902 96.8215483 436.385959 119.063898 403.21838 26.3862983"></polygon>
                    <polygon id="Fill-18" fill="#E2007D" points="290.04155 25.8210863 332.906278 118.427036 318.361925 210.872204 272.638763 123.914179"></polygon>
                    <polygon id="Fill-19" fill="#8F0059" points="239.110951 149.19344 288.423112 235.258786 261.398521 235.230125 209.501365 149.188498"></polygon>
                    <polygon id="Fill-20" fill="#E2007D" points="432.169813 25.8210863 463.485896 118.587113 450.098914 235.258786 416.132848 149.724859"></polygon>
                    <polygon id="Fill-21" fill="#8F0059" points="415.572876 149.193432 449.136488 235.258786 422.152899 235.230171 385.99909 149.188498"></polygon>
                    <polygon id="Fill-22" fill="#8F0059" points="383.520528 176.509341 420.437671 261.079872 284.004025 260.901912 233.895359 176.444089"></polygon>
                    <polygon id="Fill-23" fill="#E2007D" points="386.758783 149.188498 423.307552 235.104213 420.291175 259.645367 383.129208 175.366189"></polygon>
                    <polygon id="Fill-24" fill="#8F0059" points="470.385573 149.193429 499.359418 235.258786 472.118764 235.230186 440.526843 149.188498"></polygon>
                    <polygon id="Fill-25" fill="#E2007D" points="544.097102 1.43450479 565.366697 95.8244436 554.36764 235.258786 530.928116 149.418023"></polygon>
                    <polygon id="Fill-26" fill="#E2007D" points="657.161966 1.43450479 668.682439 95.8297567 662.724491 235.258786 650.028207 149.42171"></polygon>
                    <polygon id="Fill-27" fill="#8F0059" points="649.775934 149.193421 662.942675 235.258786 635.69237 235.230232 619.894449 149.188498"></polygon>
                    <polygon id="Fill-28" fill="#E2007D" points="620.015657 150.623003 635.678799 236.535758 634.38657 261.079872 618.459509 176.806996"></polygon>
                    <polygon id="Fill-29" fill="#8F0059" points="618.174779 176.509206 634.243858 261.079872 497.175418 260.901295 467.790719 176.444089"></polygon>
                    <polygon id="Fill-30" fill="#E2007D" points="1470.81438 124.402621 1411.11049 212.306709 1387.58781 96.4150979 1442.62996 1.43450479"></polygon>
                    <polygon id="Fill-31" fill="#8F0059" points="1561.21565 123.367412 1494.05929 212.306709 1411.9818 212.240332 1471.14593 123.376328"></polygon>
                    <polygon id="Fill-32" fill="#E2007D" points="1416.28662 236.208425 1421.238 261.079872 1482.2939 175.737738 1476.3254 149.188498"></polygon>
                    <polygon id="Fill-33" fill="#8F0059" points="1422.02639 260.972218 1505.80802 261.079872 1575.56506 176.484215 1483.47914 176.444089"></polygon>
                    <polygon id="Fill-34" fill="#8F0059" points="1285.70701 48.7731629 1243.64387 140.58147 1216.82985 140.578541 1256.36003 48.7975673"></polygon>
                    <polygon id="Fill-35" fill="#E2007D" points="1343.10464 49.4873602 1296.16846 142.015974 1288.57689 96.6238181 1334.0308 1.43450479"></polygon>
                    <polygon id="Fill-36" fill="#E2007D" points="1290.01183 73.496047 1247.54873 164.968051 1244.09372 141.663491 1285.87309 48.7731629"></polygon>
                    <polygon id="Fill-37" fill="#8F0059" points="1318.71065 74.5942492 1273.77069 164.968051 1246.9636 164.959271 1289.34915 74.6118091"></polygon>
                    <polygon id="Fill-38" fill="#E2007D" points="1323.01547 98.2480512 1276.57272 187.920128 1272.79254 164.306678 1318.47965 73.1597444"></polygon>
                    <polygon id="Fill-39" fill="#8F0059" points="1353.14923 98.9808307 1304.37507 187.920128 1277.09736 187.905494 1323.24737 98.9905865"></polygon>
                    <polygon id="Fill-40" fill="#E2007D" points="1157.99727 96.3299796 1178.17713 261.079872 1215.3949 176.489242 1191.18831 1.43450479"></polygon>
                    <polygon id="Fill-41" fill="#8F0059" points="1178.08644 261.008231 1233.1831 261.079872 1275.66242 176.469606 1215.13791 176.444089"></polygon>
                    <polygon id="Fill-42" fill="#E2007D" points="1304.36124 188.30427 1316.56478 261.079872 1367.49864 176.539815 1352.81325 98.9808307"></polygon>
                    <polygon id="Fill-43" fill="#8F0059" points="1317.27571 261.009306 1372.81902 261.079872 1429.20109 176.470552 1368.16903 176.444089"></polygon>
                    <polygon id="Fill-44" fill="#E2007D" points="1013.06824 25.2360519 994.49323 119.063898 992.979072 96.560832 1011.26028 1.43450479"></polygon>
                    <polygon id="Fill-45" fill="#8F0059" points="1041.76706 25.8210863 1020.93251 119.060959 994.414013 119.063898 1012.77732 25.852429"></polygon>
                    <polygon id="Fill-46" fill="#8F0059" points="1156.56233 25.8210863 1125.77241 119.059985 1099.1647 119.063898 1127.4705 25.8523919"></polygon>
                    <polygon id="Fill-47" fill="#E2007D" points="1051.81165 150.596366 1029.16298 236.693291 1020.24295 119.244052 1041.11495 25.8210863"></polygon>
                    <polygon id="Fill-48" fill="#E2007D" points="1003.02366 236.532269 1004.63965 261.079872 1024.54777 176.819129 1022.60254 150.623003"></polygon>
                    <polygon id="Fill-49" fill="#8F0059" points="1003.02366 260.901187 1141.46276 261.079872 1175.21656 176.510851 1023.17262 176.444089"></polygon>
                    <polygon id="Fill-50" fill="#E2007D" points="860.964513 74.6254375 855.656775 164.968051 855.22475 141.946226 860.447626 50.2076677"></polygon>
                    <polygon id="Fill-51" fill="#E2007D" points="832.265696 98.2447645 829.611941 187.920128 829.395814 164.303137 832.007052 73.1597444"></polygon>
                    <polygon id="Fill-52" fill="#E2007D" points="949.930846 98.7159342 936.867399 187.920128 932.711556 96.1423774 944.959998 1.43450479"></polygon>
                    <polygon id="Fill-53" fill="#8F0059" points="892.533212 124.801917 884.199878 212.306709 856.659691 212.285131 862.345871 124.804859"></polygon>
                    <polygon id="Fill-54" fill="#8F0059" points="862.399454 150.627917 856.702819 236.693291 829.395814 236.66381 832.446563 150.623003"></polygon>
                    <polygon id="Fill-55" fill="#E2007D" points="892.533212 150.620056 884.570887 236.693291 883.923567 212.459985 891.7553 124.801917"></polygon>
                    <polygon id="Fill-56" fill="#8F0059" points="922.66697 150.627914 911.549358 236.693291 883.923567 236.664808 892.360329 150.623003"></polygon>
                    <polygon id="Fill-57" fill="#8F0059" points="775.701285 261.008938 830.606971 261.079872 833.700637 176.47069 773.433121 176.444089"></polygon>
                    <polygon id="Fill-58" fill="#E2007D" points="912.622384 236.532594 913.484424 261.079872 924.101911 176.816374 923.064097 150.623003"></polygon>
                    <polygon id="Fill-59" fill="#8F0059" points="912.622384 261.008048 967.784772 261.079872 984.369427 176.470655 923.802552 176.444089"></polygon>
                    <path d="M1449.44708,30.1246006 L1458.28852,68.85623 L1546.86624,68.85623 L1536.83932,30.1246006 L1449.44708,30.1246006 Z M1339.70971,30.1246006 L1343.25829,48.816261 L1314.06688,48.8406869 L1310.70424,30.1246006 L1194.7876,30.1246006 L1200.17294,68.85623 L1258.84698,68.85623 L1255.66634,48.8914928 L1284.85775,48.8660898 L1288.24696,68.85623 L1405.9492,68.85623 L1397.80822,30.1246006 L1339.70971,30.1246006 Z M1041.42643,30.1246006 L1044.73004,68.85623 L1132.55515,68.85623 L1128.07491,30.1246006 L1041.42643,30.1246006 Z M946.142116,30.1246006 L948.15301,68.85623 L977.328684,68.85623 L974.927219,30.1246006 L946.142116,30.1246006 Z M773.696138,30.1246006 L773.366564,68.85623 L802.43697,68.85623 L802.377942,30.1246006 L773.696138,30.1246006 Z M597.675018,30.1246006 L594.955786,68.85623 L652.932304,68.85623 L654.874331,30.1246006 L597.675018,30.1246006 Z M454.958595,30.1246006 L450.303237,68.85623 L537.049118,68.85623 L540.542604,30.1246006 L454.958595,30.1246006 Z M345.449472,30.1246006 L339.307587,68.85623 L425.819322,68.85623 L430.802286,30.1246006 L345.449472,30.1246006 Z M231.861499,30.1246006 L224.178978,68.85623 L281.70885,68.85623 L288.621052,30.1246006 L231.861499,30.1246006 Z M122.834439,30.1246006 L113.671295,68.85623 L171.068352,68.85623 L175.197375,49.8059977 L203.754236,49.7815718 L207.819312,30.1246006 L122.834439,30.1246006 Z M9.77968846,30.1246006 L4.30482257,49.9496219 L32.7623196,49.926173 L27.7203272,68.85623 L85.0150693,68.85623 L89.6930544,49.8782983 L61.2030919,49.9017472 L66.2726308,30.1246006 L9.77968846,30.1246006 Z M860.238371,49.2256388 L860.663374,68.85623 L889.820355,68.85623 L889.196624,49.2012129 L860.238371,49.2256388 Z" id="Fill-60" fill="#E54D25"></path>
                    <path d="M1442.78057,0.118470351 L1449.44559,30.1246006 L1536.82166,30.1246006 L1529.23302,0 L1442.78057,0.118470351 Z M1334.21336,0.267060282 L1339.72754,30.1246006 L1397.81629,30.1246006 L1391.69423,0.187745386 L1334.21336,0.267060282 Z M1190.82006,0.461833571 L1194.83225,30.1246006 L1310.72743,30.1246006 L1309.76447,24.6117134 L1280.80764,24.6448449 L1276.79938,0.345371192 L1190.82006,0.461833571 Z M1010.52816,0.708814133 L1012.30065,24.9450367 L1041.06764,24.9129092 L1041.50043,30.1246006 L1128.13288,30.1246006 L1127.53484,24.8165265 L1156.36774,24.783395 L1153.39818,0.513036858 L1010.52816,0.708814133 Z M944.75242,0.798168889 L946.233754,30.1246006 L975.013531,30.1246006 L973.242029,0.759013434 L944.75242,0.798168889 Z M774.059688,1.03109365 L773.819684,30.1246006 L802.495198,30.1246006 L802.451918,0.992942177 L774.059688,1.03109365 Z M599.801328,1.27004232 L597.830151,30.1246006 L655.019864,30.1246006 L656.431361,1.19173141 L599.801328,1.27004232 Z M458.492317,1.46180365 L455.141119,30.1246006 L540.709292,30.1246006 L543.235231,1.34634526 L458.492317,1.46180365 Z M265.641546,1.72585197 L261.230005,25.786377 L232.916464,25.8185046 L232.085304,30.1246006 L288.834354,30.1246006 L289.592726,25.7552535 L346.335875,25.6909984 L345.651275,30.1246006 L430.98928,30.1246006 L431.555846,25.5956197 L403.143943,25.6277472 L406.393828,1.53308666 L265.641546,1.72585197 Z M157.625167,1.87343792 L152.324432,25.9088633 L124.041383,25.9399869 L123.077434,30.1246006 L208.046581,30.1246006 L213.746667,1.796131 L157.625167,1.87343792 Z M17.5850273,2.06519925 L10.044586,30.1246006 L66.5270752,30.1246006 L67.5549595,26.003238 L39.3525679,26.0353656 L45.5729894,2.0260438 L17.5850273,2.06519925 Z" id="Fill-61" fill="#E33230"></path>
                    <path d="M1458.36434,68.85623 L1467.20048,107.587859 L1556.91083,107.587859 L1546.88893,68.85623 L1458.36434,68.85623 Z M1288.42476,68.85623 L1289.18085,73.3221453 L1318.62022,73.3045591 L1323.09483,98.2173512 L1352.77214,98.2066041 L1354.55176,107.587859 L1414.19151,107.587859 L1406.0564,68.85623 L1288.42476,68.85623 Z M1200.40357,68.85623 L1205.78568,107.587859 L1265.21011,107.587859 L1259.04339,68.85623 L1200.40357,68.85623 Z M1045.05389,68.85623 L1048.3565,107.587859 L1137.3029,107.587859 L1132.82633,68.85623 L1045.05389,68.85623 Z M948.534786,68.85623 L950.064666,98.3472936 L920.593829,98.3570637 L919.556539,73.5439267 L890.386565,73.5615129 L890.237116,68.85623 L861.097622,68.85623 L861.20086,73.5790991 L832.064315,73.5966852 L832.35338,98.388328 L802.951368,98.3980982 L802.90614,68.85623 L773.853169,68.85623 L773.523792,107.587859 L980.092985,107.587859 L977.692961,68.85623 L948.534786,68.85623 Z M595.549394,68.85623 L592.832776,107.587859 L651.550277,107.587859 L653.49114,68.85623 L595.549394,68.85623 Z M450.983602,68.85623 L446.331037,107.587859 L534.185083,107.587859 L537.677456,68.85623 L450.983602,68.85623 Z M340.054523,68.85623 L333.916322,107.587859 L421.533413,107.587859 L426.514372,68.85623 L340.054523,68.85623 Z M224.994964,68.85623 L217.316067,107.587859 L275.58129,107.587859 L282.490331,68.85623 L224.994964,68.85623 Z M114.553558,68.85623 L113.331423,74.0275469 L84.6363417,74.0451331 L85.914519,68.85623 L28.6541399,68.85623 L27.2638763,74.0793285 L55.9255286,74.0617423 L49.6221478,98.659937 L78.5748314,98.6501669 L76.3734167,107.587859 L134.469527,107.587859 L136.498879,98.6306267 L165.469261,98.6198795 L171.916191,68.85623 L114.553558,68.85623 Z" id="Fill-62" fill="#F08F1A"></path>
                    <path d="M1467.368,107.587859 L1471.00362,123.518994 L1561.21565,123.5102 L1557.09521,107.587859 L1467.368,107.587859 Z M1354.69811,107.587859 L1362.04704,146.319489 L1422.48669,146.319489 L1414.34907,107.587859 L1354.69811,107.587859 Z M1205.90407,107.587859 L1211.28719,146.319489 L1271.50754,146.319489 L1265.33967,107.587859 L1205.90407,107.587859 Z M1048.44433,107.587859 L1051.74756,146.319489 L1141.88682,146.319489 L1137.40842,107.587859 L1048.44433,107.587859 Z M773.560946,107.587859 L773.231508,146.319489 L862.829895,146.319489 L862.337213,123.574683 L892.032886,123.571752 L892.753717,146.319489 L982.568453,146.319489 L980.168961,107.587859 L773.560946,107.587859 Z M592.83597,107.587859 L590.117858,146.319489 L649.622296,146.319489 L651.564507,107.587859 L592.83597,107.587859 Z M446.306698,107.587859 L441.653258,146.319489 L530.684224,146.319489 L534.177255,107.587859 L446.306698,107.587859 Z M333.870855,107.587859 L331.328771,123.623534 L272.662188,123.629396 L275.52486,107.587859 L217.248687,107.587859 L209.568347,146.319489 L416.523502,146.319489 L421.504413,107.587859 L333.870855,107.587859 Z M76.2785636,107.587859 L72.3223529,123.647959 L43.1183784,123.649913 L37.3084622,146.319489 L125.610731,146.319489 L134.386576,107.587859 L76.2785636,107.587859 Z" id="Fill-63" fill="#F7B041"></path>
                    <path d="M1361.50885,146.319489 L1367.0533,176.351723 L1428.0826,176.37883 L1421.93739,146.319489 L1361.50885,146.319489 Z M1210.77425,146.319489 L1214.82616,176.284456 L1275.63128,176.310559 L1270.98451,146.319489 L1210.77425,146.319489 Z M1051.26036,146.319489 L1051.51207,149.353535 L1021.50084,149.348515 L1023.46534,176.198113 L1175.10353,176.266384 L1171.81264,149.374618 L1141.72767,149.369598 L1141.38452,146.319489 L1051.26036,146.319489 Z M892.294138,146.319489 L892.386562,149.325423 L922.321103,149.331447 L923.411509,176.153937 L983.894128,176.181045 L982.093828,146.319489 L892.294138,146.319489 Z M772.791952,146.319489 L772.54516,176.08667 L832.842931,176.113778 L832.540095,149.315383 L862.438256,149.321407 L862.374346,146.319489 L772.791952,146.319489 Z M589.708977,146.319489 L589.507414,149.273216 L530.02671,149.263176 L530.285301,146.319489 L441.268265,146.319489 L440.9261,149.248116 L470.619748,149.252132 L467.759522,175.951132 L617.6918,176.017395 L619.257107,149.278236 L649.058911,149.28426 L649.203447,146.319489 L589.708977,146.319489 Z M209.223217,146.319489 L208.665724,149.206953 L238.184357,149.212977 L233.303586,175.846718 L382.554483,175.912981 L386.151151,149.238076 L415.776956,149.243096 L416.142719,146.319489 L209.223217,146.319489 Z M36.9912068,146.319489 L36.2793458,149.177837 L6.88165053,149.172817 L0,175.743307 L89.0425995,175.782463 L95.1612609,149.187877 L124.646464,149.192897 L125.279666,146.319489 L36.9912068,146.319489 Z M1482.32758,176.402926 L1574.13012,176.444089 L1567.33303,149.442889 L1476.33772,149.426826 L1482.32758,176.402926 Z" id="Fill-64" fill="#FBE834"></path>
                    <path d="M1476.33779,149.90929 L1482.32666,176.403661 L1574.13012,176.444089 L1567.33106,149.925067 L1476.33779,149.90929 Z M213.927856,1.76405633 L157.828526,1.83998274 L152.529885,25.4461921 L124.258009,25.4767599 L112.914453,73.8961127 L84.2197871,73.9128757 L90.1722783,49.5227508 L61.6988402,49.5464162 L67.7948835,25.5388815 L39.6036332,25.5704353 L45.8215973,1.98986343 L17.8437085,2.0273336 L4.83357235,49.595719 L33.2745638,49.5710676 L26.8471711,73.9473877 L55.5074234,73.9306247 L49.2039181,98.7565868 L78.158157,98.7457402 L72.0001701,123.975 L42.8020894,123.977958 L36.2793232,149.664748 L6.88164623,149.659818 L0,175.754835 L89.0425439,175.794278 L95.1621847,149.674609 L124.646386,149.679539 L136.08335,98.7260191 L165.05332,98.7161585 L175.627989,49.4497826 L204.168287,49.4251311 L213.927856,1.76405633 Z M272.306319,123.956265 L289.744935,25.2953254 L346.464685,25.2322177 L330.963037,123.951334 L272.306319,123.956265 Z M406.498912,1.5066954 L265.802234,1.69503233 L261.392435,25.3258931 L233.090079,25.357447 L208.665594,149.69433 L238.184208,149.69926 L233.303441,175.857385 L382.554244,175.922465 L386.151893,149.723911 L415.77768,149.728842 L431.65099,25.1385423 L403.250311,25.1700961 L406.498912,1.5066954 Z M656.437668,1.1704499 L599.830007,1.2463763 L589.507046,149.758423 L530.028346,149.748563 L543.286256,1.32328876 L458.577803,1.43668534 L440.926808,149.732786 L470.620438,149.738702 L467.758247,175.959935 L617.691414,176.025015 L619.25672,149.76434 L649.058506,149.768284 L656.437668,1.1704499 Z M973.124165,0.746445301 L944.644827,0.783915475 L949.665214,98.4400625 L920.192811,98.449923 L919.155501,73.4080144 L889.98495,73.4257634 L889.213113,48.8394132 L860.271656,48.8640646 L860.799652,73.4435124 L831.663515,73.4602754 L831.950619,98.4814769 L802.549009,98.4913374 L802.400541,0.974224514 L774.019527,1.0136668 L772.544677,176.093053 L832.842411,176.119677 L832.541542,149.799838 L862.437718,149.804768 L861.881208,123.902032 L891.572871,123.899073 L892.387971,149.809698 L922.320527,149.815615 L923.411915,176.159119 L983.894497,176.185742 L973.124165,0.746445301 Z M1153.20816,0.50387523 L1010.39459,0.696156384 L1012.16736,24.4995772 L1040.92298,24.4680234 L1051.5124,149.837308 L1021.5002,149.832378 L1023.4647,176.202505 L1175.10181,176.268571 L1171.81191,149.858015 L1141.72794,149.852099 L1127.35504,24.3723758 L1156.17851,24.340822 L1153.20816,0.50387523 Z M1391.41105,0.184392697 L1333.9529,0.261305158 L1343.01044,48.4509066 L1313.83694,48.4765441 L1309.51268,24.1722062 L1280.56729,24.2047461 L1276.56062,0.33821762 L1190.61624,0.453586312 L1214.82441,176.28632 L1275.63146,176.312944 L1255.47126,48.526833 L1284.64476,48.5011955 L1288.7881,73.1841794 L1318.22806,73.1654443 L1322.70176,98.3089169 L1352.38163,98.2990563 L1367.05343,176.353372 L1428.08269,176.379996 L1391.41105,0.184392697 Z M1528.89453,0 L1442.47722,0.115368692 L1470.44626,123.84484 L1560.64311,123.836952 L1528.89453,0 Z M1481.26182,153.854505 L1564.28108,153.869296 L1569.05762,172.496902 L1485.46809,172.461404 L1481.26182,153.854505 L1481.26182,153.854505 Z M209.104116,5.71518754 L200.959998,45.4838605 L175.624056,45.5055538 L172.451164,45.5075259 L171.782566,48.6195224 L161.877479,94.7719297 L136.081383,94.7817903 L132.936022,94.7827763 L132.245792,97.8592748 L121.501024,145.73531 L95.1621847,145.73038 L92.04632,145.729394 L91.3334763,148.772366 L85.9276624,171.849063 L5.10887753,171.813565 L9.90901997,153.604047 L36.2783399,153.608977 L39.3361939,153.608977 L40.0903334,150.637986 L45.8579769,127.922187 L72.0011533,127.919229 L75.087521,127.919229 L75.8210127,124.91274 L81.9780163,99.6834806 L83.1696945,94.8005253 L78.1571738,94.8015114 L54.2646172,94.8103859 L59.3184337,74.9038631 L60.5691058,69.9824517 L55.505457,69.9863959 L31.9550654,70.0002007 L37.0767249,50.5798041 L38.3834413,45.6228946 L33.2706308,45.6268388 L9.99161152,45.6465599 L20.844535,5.96761818 L40.7117365,5.94099463 L35.8004888,24.5616988 L34.4937724,29.5205805 L39.6085493,29.5146641 L62.7332011,29.4890266 L57.88783,48.5731777 L56.6381411,53.4955753 L61.7017899,53.490645 L85.1607409,53.4709238 L80.3999277,72.9751353 L79.2072664,77.8600626 L84.2227368,77.8571045 L112.917402,77.8403415 L116.0313,77.8383694 L116.744144,74.798355 L127.374857,29.4180305 L152.533817,29.3904209 L155.676229,29.3864767 L156.367442,26.3119503 L160.975854,5.78026731 L209.104116,5.71518754 L209.104116,5.71518754 Z M267.614332,127.90148 L272.307302,127.90148 L330.96402,127.895563 L334.32471,127.895563 L334.847789,124.564662 L350.350421,25.8455453 L351.066214,21.2830586 L346.459769,21.2879889 L289.740019,21.3510966 L286.446189,21.3540547 L285.871981,24.6060714 L268.434348,123.267997 L267.614332,127.90148 L267.614332,127.90148 Z M401.986857,5.45684055 L399.353759,24.6326949 L398.737272,29.1192552 L403.254244,29.1143249 L427.18318,29.0877014 L412.315717,145.784613 L386.151893,145.779683 L382.722377,145.779683 L382.255341,149.18651 L379.125711,171.976264 L238.039673,171.915129 L242.05028,150.424012 L242.922407,145.756017 L238.185191,145.755031 L213.448038,145.751087 L236.323932,29.2987176 L261.397351,29.2701219 L264.658734,29.2661777 L265.258506,26.0516312 L269.068533,5.6353169 L401.986857,5.45684055 L401.986857,5.45684055 Z M652.304157,5.12059504 L645.317305,145.824055 L619.25672,145.820111 L615.551899,145.819125 L615.330672,149.528672 L613.986593,172.0798 L472.145432,172.017679 L474.528788,150.167637 L475.007622,145.79546 L470.621421,145.794473 L445.356271,145.789543 L462.070245,5.37598386 L538.984613,5.27244785 L526.110163,149.39654 L525.726702,153.691806 L530.027362,153.692792 L589.506063,153.702652 L593.175488,153.703638 L593.430145,150.032547 L603.497465,5.18567482 L652.304157,5.12059504 L652.304157,5.12059504 Z M969.425243,4.69461833 L979.711824,172.239542 L927.18458,172.216862 L926.249525,149.651929 L926.093191,145.871386 L922.320527,145.871386 L896.197998,145.866456 L895.503836,123.77483 L895.383882,119.954845 L891.571888,119.954845 L861.881208,119.957803 L857.863719,119.957803 L857.94926,123.986832 L858.419245,145.860539 L832.541542,145.855609 L828.562399,145.855609 L828.608611,149.845196 L828.864251,172.173476 L776.510055,172.150796 L777.920011,4.95197926 L798.473509,4.92436966 L798.616078,98.4972538 L798.621977,102.437538 L802.550975,102.435566 L831.951602,102.425706 L835.928779,102.42472 L835.882567,98.4361182 L835.641675,77.4025321 L860.801618,77.3877412 L864.817141,77.3847831 L864.730617,73.3587115 L864.290128,52.8043492 L885.402103,52.7866001 L886.053986,73.5500066 L886.174923,77.3719643 L889.9879,77.3699922 L915.382836,77.3542153 L916.263813,98.6136085 L916.419164,102.396124 L920.194778,102.394152 L949.66718,102.384291 L953.80659,102.383305 L953.593229,98.2369347 L948.78522,4.72222793 L969.425243,4.69461833 L969.425243,4.69461833 Z M1149.73735,4.45303432 L1151.72348,20.4015235 L1127.35209,20.428147 L1122.94524,20.4330773 L1123.44767,24.823004 L1137.81959,150.302727 L1138.21976,153.796328 L1141.72696,153.796328 L1168.34012,153.801258 L1170.64776,172.32237 L1027.11446,172.260249 L1025.73892,153.776607 L1051.5124,153.781537 L1055.79241,153.781537 L1055.43156,149.504021 L1044.84116,24.1357221 L1044.53636,20.5198503 L1040.91807,20.5237946 L1015.81712,20.5514042 L1014.63232,4.63446884 L1149.73735,4.45303432 L1149.73735,4.45303432 Z M1388.21456,4.13355179 L1423.24322,172.433795 L1370.31383,172.410129 L1356.24475,97.5674018 L1355.64203,94.3528554 L1352.37966,94.3548275 L1325.99559,94.363702 L1322.10101,72.4732321 L1321.5209,69.2192434 L1318.22511,69.2212155 L1292.11438,69.2379785 L1288.52263,47.8464536 L1287.97005,44.5540086 L1284.64181,44.5569667 L1255.46732,44.5826042 L1250.86776,44.5855624 L1251.5865,49.1431188 L1271.02698,172.366743 L1218.25295,172.343078 L1195.12928,4.39189877 L1273.23631,4.28737671 L1276.68844,24.8594881 L1277.24101,28.1519331 L1280.57122,28.1489749 L1306.21885,28.1203793 L1309.96497,49.1687563 L1310.54409,52.4237311 L1313.8389,52.4207729 L1343.01339,52.3951354 L1347.75355,52.3921773 L1346.87553,47.7212243 L1338.69503,4.19961762 L1388.21456,4.13355179 L1388.21456,4.13355179 Z M1525.84651,3.94915909 L1555.5716,119.893709 L1473.5867,119.900611 L1447.39928,4.05368115 L1525.84651,3.94915909 Z" id="Fill-65" fill="#FFFFFF"></path>
                </g>
            </g>
        </g>
    </g>
</svg>