<?xml version="1.0" encoding="UTF-8"?>
<svg width="252px" height="73px" viewBox="0 0 252 73" version="1.1" xmlns="http://www.w3.org/2000/svg" xmlns:xlink="http://www.w3.org/1999/xlink">
    <!-- Generator: Sketch 64 (93537) - https://sketch.com -->
    <title>TEXT / title_1</title>
    <desc>Created with Sketch.</desc>
    <g id="1920x1080" stroke="none" stroke-width="1" fill="none" fill-rule="evenodd">
        <g id="01" transform="translate(-34.000000, -110.000000)">
            <g id="TEXT-/-title" transform="translate(35.000000, 110.000000)">
                <g id="Group-91" transform="translate(-0.215332, -0.107598)">
                    <path d="M155.669863,0.158908916 L153.056297,11.1962094 L152.410033,3.74896902 L148.004553,3.75500564 L147.741036,0.172275703 L126.004154,0.208710975 L125.93633,3.7851887 L121.650729,3.79100972 L121.528259,26.9968288 L121.651161,34.1073124 L118.28722,34.1131334 L118.575576,13.6281021 L118.046815,0.222077762 L105.063221,0.243852688 L104.662114,7.46558241 L97.8553924,7.47291258 L96.4246267,0.258513034 L87.7953207,0.272957787 L86.8157732,9.36409726 L84.1974546,0.279209994 L84.1974546,0.2789944 L84.1972386,0.2789944 L79.8904695,0.28610898 L77.9497342,15.0238533 L75.5113413,15.0249313 L74.0092964,11.2201402 L74.0092964,11.2199246 L74.0090804,11.2199246 L71.691214,11.221865 L70.1537456,7.50201768 L65.7631696,7.50654514 L65.1281377,11.2263924 L63.6211249,11.227686 L58.4101913,0.322544253 L58.4099753,0.322544253 L54.121998,0.329443239 L48.5423571,26.9506918 L53.5180697,34.222008 L51.7144927,34.2248107 L50.1543446,41.417651 L47.3893638,41.4206693 L43.1517139,34.2394711 L43.1517139,34.2394711 L34.6124787,34.2537003 L34.6053508,34.2537003 L33.6126275,37.9494011 L31.1083554,34.2595213 L1.30829532,34.3097545 L1.03592279,35.0472993 L0,37.8525997 L6.27126405,44.5806207 L0.694647144,60.8119956 L0.694647144,60.8122112 L0.694863141,60.8122112 L13.5378434,72.2656068 L25.8928859,72.285657 L28.5857236,62.1049088 L37.5295215,72.3046292 L45.7961681,72.317996 L47.691976,63.3120158 L54.0785825,72.3313627 L66.5206719,72.3516285 L67.2844382,67.4020369 L69.9885077,72.3572339 L99.144032,72.4046645 L99.3926448,68.6319968 L97.6627229,61.3151904 L99.8738867,61.3166996 L100.107596,57.7663087 L98.6798539,50.8765927 L100.560974,50.8759459 L100.781291,47.5288595 L98.3130906,34.146766 L97.6266513,34.1478439 L98.3539141,23.8743906 L103.750821,23.876331 L103.578239,26.9854024 L105.670821,38.5239573 L114.713114,38.5386177 L115.528071,50.8724964 L118.864797,50.871634 L118.787254,56.7978634 L118.786174,56.7978634 L114.156705,56.7965699 L114.04957,60.8831414 L115.038405,72.4303201 L136.01325,72.4645994 L137.502983,60.8980173 L137.341201,56.8028221 L135.019231,56.8021753 L132.69618,56.8015285 L132.578894,52.3283981 L132.540446,50.8686157 L135.275403,50.8679689 L136.586939,37.6650335 L136.445676,34.0825191 L136.436605,34.0825191 L126.032665,34.0999822 L126.109992,31.0702492 L138.209726,31.0821068 L138.516226,38.5774245 L140.179405,38.5800116 L139.042827,47.5088093 L139.195537,50.866891 L147.119828,50.8649506 L148.595522,72.4850808 L161.242808,72.5055621 L165.727775,60.915696 L165.727775,60.915696 L164.536982,50.8608543 L166.975159,50.8604232 L171.436582,38.6308916 L172.890676,38.6330475 L169.560646,47.4926398 L172.919835,72.52475 L202.597857,72.5728273 L206.058565,68.303217 L207.027745,72.5799418 L211.284186,72.5870564 L218.06002,65.0548723 L222.009098,65.058753 L228.361577,58.2807143 L232.605058,72.6215514 L236.880076,72.6284503 L250.430663,60.9689475 L244.613425,44.6028268 L240.811874,33.9072418 L234.909749,33.9171591 L231.969811,33.9219021 L229.090783,37.5382646 L228.689892,37.5386958 L225.760322,41.2322407 L225.339991,41.2326719 L224.226741,37.5447324 L219.766614,37.5509846 L218.726155,33.9443238 L209.921244,33.9589842 L209.917356,33.9589842 L202.899821,45.016766 L201.578566,45.0176284 L206.226827,37.5697412 L205.928751,36.3673772 L205.333462,33.9667455 L184.881547,34.0012405 L178.186712,34.0124513 L181.920657,27.0347732 L181.920657,27.0345576 L180.271734,16.9631153 L180.609553,16.9628997 L186.9616,3.70153849 L186.9616,3.7013229 L186.371928,0.6021688 L186.277753,0.107597704 L155.669863,0.158908916 Z M154.429607,27.0173102 L153.55741,16.9691519 L160.707999,16.9674272 L162.541384,34.0387537 L152.433361,34.0557856 L154.429607,27.0173102 Z M86.280532,30.8445229 L87.4490771,34.1648758 L85.9386084,34.1674629 L86.280532,30.8445229 Z M69.9567561,31.0152729 L71.7143257,31.0169976 L73.2710179,34.1885911 L69.4863141,34.1950589 L69.9567561,31.0152729 Z M65.1633452,35.5552372 L65.3000715,34.6963134 L68.080604,34.6999784 L67.1641277,40.1820856 L65.1633452,35.5552372 Z" id="Fill-1" fill="#E33230"></path>
                    <polygon id="Fill-2" fill="#E2007D" points="70.1289411 7.42424159 75.3660637 20.308034 74.8994189 23.7790926 69.5521102 11.1435255"></polygon>
                    <polygon id="Fill-3" fill="#E2007D" points="58.4468208 0.322793113 64.8148148 13.674798 62.4727453 27.4374146 55.5555556 15.0532185"></polygon>
                    <polygon id="Fill-4" fill="#E2007D" points="73.9842987 11.2977589 79.0267011 23.9049576 78.5780174 27.4374146 73.4280792 15.0913302"></polygon>
                    <polygon id="Fill-5" fill="#8F0059" points="68.2352198 19.0447936 73.8587425 31.0957365 69.8231362 31.0918733 63.7381568 19.0450083"></polygon>
                    <polygon id="Fill-6" fill="#8F0059" points="63.1167491 22.9196072 69.3367786 34.7540585 65.2611143 34.7486578 58.5701981 22.918311"></polygon>
                    <polygon id="Fill-7" fill="#E2007D" points="63.7781022 19.0447936 69.9827735 31.0858889 69.4314896 34.7540585 63.0921619 23.0019289"></polygon>
                    <polygon id="Fill-8" fill="#8F0059" points="72.2027445 22.9196063 77.5193798 34.7540585 73.4065395 34.7486615 67.6141258 22.918311"></polygon>
                    <polygon id="Fill-9" fill="#E2007D" points="58.4598394 22.918311 65.245478 34.6691104 64.6432705 38.4123804 57.7088717 26.9660637"></polygon>
                    <polygon id="Fill-10" fill="#8F0059" points="57.7063589 27.0129024 64.5994832 38.6275758 56.3100754 38.613859 48.4496124 27.0070238"></polygon>
                    <polygon id="Fill-11" fill="#8F0059" points="81.0169116 27.0128926 85.4866494 38.6275758 77.1516892 38.6138818 71.7054264 27.0070238"></polygon>
                    <polygon id="Fill-12" fill="#E2007D" points="84.1711618 0.322793113 88.0706288 13.720455 85.4838861 38.6275758 80.9646856 27.0796484"></polygon>
                    <polygon id="Fill-13" fill="#E2007D" points="96.4096588 0.107597704 99.0525409 13.5490655 98.5762413 20.3359661 95.8225668 7.35712335"></polygon>
                    <polygon id="Fill-14" fill="#8F0059" points="104.46659 11.0825635 106.373816 23.7790926 98.4097455 23.7760703 95.6072351 11.0890399"></polygon>
                    <polygon id="Fill-15" fill="#E2007D" points="95.5974041 11.2977589 98.4065461 23.9789269 97.3756604 38.6275758 94.3152455 27.0868045"></polygon>
                    <polygon id="Fill-16" fill="#8F0059" points="94.2323806 27.0128871 97.329888 38.6275758 88.9251961 38.6138946 84.8406546 27.0070238"></polygon>
                    <polygon id="Fill-17" fill="#E2007D" points="117.959834 0.322793113 118.432386 13.7227436 118.118895 38.6275758 117.571059 27.0826119"></polygon>
                    <polygon id="Fill-18" fill="#8F0059" points="117.604231 27.0159101 118.217054 38.6275758 105.666914 38.6069854 103.574505 27.0070238"></polygon>
                    <polygon id="Fill-19" fill="#E2007D" points="155.900086 3.68715192 152.731398 16.8928396 152.45478 13.5391064 155.55905 0.107597704"></polygon>
                    <polygon id="Fill-20" fill="#8F0059" points="164.944014 3.76591965 160.815114 17.1060793 152.885444 17.108035 156.132646 3.77808815"></polygon>
                    <polygon id="Fill-21" fill="#8F0059" points="187.12317 3.55072424 180.724732 16.8908877 172.695952 16.8928396 178.198604 3.56286921"></polygon>
                    <polygon id="Fill-22" fill="#E2007D" points="167.743325 27.0440806 162.990075 38.6275758 160.637382 16.9926273 164.820215 3.76591965"></polygon>
                    <polygon id="Fill-23" fill="#8F0059" points="181.955211 27.0158695 175.72586 38.6275758 163.006029 38.6068637 167.719108 27.0070238"></polygon>
                    <polygon id="Fill-24" fill="#8F0059" points="125.968992 3.68777016 125.77092 16.8928396 125.753661 13.5379926 125.947623 0.107597704"></polygon>
                    <polygon id="Fill-25" fill="#8F0059" points="139.319552 7.42424159 137.716179 20.3359661 125.753661 20.3351075 126.019235 7.43819441"></polygon>
                    <polygon id="Fill-26" fill="#E2007D" points="139.750215 14.9908411 138.097341 27.4374146 137.812231 20.3865041 139.397079 7.42424159"></polygon>
                    <polygon id="Fill-27" fill="#8F0059" points="139.965547 18.8295982 138.262045 31.0957365 125.968992 31.0833539 126.25083 18.8304672"></polygon>
                    <polygon id="Fill-28" fill="#8F0059" points="126.184324 27.0100578 125.885377 38.6275758 121.648583 38.6206409 121.447028 27.0070238"></polygon>
                    <polygon id="Fill-29" fill="#E2007D" points="140.39621 27.1089614 138.558225 38.6275758 138.242894 31.164872 140.002436 19.0447936"></polygon>
                    <polygon id="Fill-30" fill="#8F0059" points="154.392765 27.015887 151.10416 38.6275758 138.458226 38.6070391 140.247114 27.0070238"></polygon>
                    <polygon id="Fill-31" fill="#8F0059" points="8.54508987 37.7667942 19.8105082 50.89198 12.0996151 50.8937141 0 37.7787163"></polygon>
                    <polygon id="Fill-32" fill="#E2007D" points="30.9327022 34.3236676 40.0516796 47.5760531 39.2370411 50.8937141 29.9310939 37.8623628"></polygon>
                    <polygon id="Fill-33" fill="#8F0059" points="30.173665 37.7667942 39.4056848 50.8919833 31.6118732 50.8937141 21.5331611 37.7786935"></polygon>
                    <polygon id="Fill-34" fill="#E2007D" points="21.4161042 37.9819896 31.4384152 51.0393765 25.7992242 72.4132549 14.4272179 60.958855"></polygon>
                    <polygon id="Fill-35" fill="#8F0059" points="14.4289622 61.0164708 25.8397933 72.4132549 13.4871481 72.3933237 0.645994832 61.0078983"></polygon>
                    <polygon id="Fill-36" fill="#E2007D" points="43.1043637 34.3236676 51.0335917 47.6172117 49.6035451 54.3368406 41.3436693 41.4993791"></polygon>
                    <polygon id="Fill-37" fill="#8F0059" points="49.3532103 45.0834381 56.8475452 57.7799672 48.8656929 57.7771477 40.4823428 45.0899444"></polygon>
                    <polygon id="Fill-38" fill="#E2007D" points="40.4506829 45.2986335 48.8802756 57.8793619 45.7863094 72.4132549 36.6063738 60.9583597"></polygon>
                    <polygon id="Fill-39" fill="#8F0059" points="36.5622285 61.0136768 45.6503015 72.4132549 37.395221 72.3997717 27.3471146 61.0078983"></polygon>
                    <polygon id="Fill-40" fill="#E2007D" points="64.6223795 34.3236676 70.4134367 47.6446691 66.5713764 72.4132549 59.8621878 60.9284305"></polygon>
                    <polygon id="Fill-41" fill="#8F0059" points="59.8226799 60.8014086 66.5374677 72.4132549 54.0389404 72.3927966 45.8656331 60.7927029"></polygon>
                    <polygon id="Fill-42" fill="#E2007D" points="98.2530992 34.1084722 100.775194 47.5354544 100.550066 50.8937141 97.9758829 37.6916975"></polygon>
                    <polygon id="Fill-43" fill="#8F0059" points="98.0314029 37.7667942 100.559862 50.8900586 84.7935755 50.8937141 80.5340224 37.7906621"></polygon>
                    <polygon id="Fill-44" fill="#E2007D" points="80.6128138 37.7667942 84.8406546 50.9009913 84.0793506 57.7799672 79.672696 45.1300745"></polygon>
                    <polygon id="Fill-45" fill="#E2007D" points="97.4140553 45.0834381 100.129199 57.691056 99.8875451 61.2230937 97.1145564 48.8771559"></polygon>
                    <polygon id="Fill-46" fill="#8F0059" points="97.2352598 48.9569554 99.9138674 61.4382891 83.7544164 61.4274469 79.2420327 48.9643281"></polygon>
                    <polygon id="Fill-47" fill="#E2007D" points="79.1870657 48.9569554 83.7639966 61.4125003 82.9420922 68.754933 78.1653747 56.8695584"></polygon>
                    <polygon id="Fill-48" fill="#8F0059" points="96.3995233 60.813304 99.2678725 72.4132549 70.0344908 72.3655471 63.7381568 60.7927029"></polygon>
                    <polygon id="Fill-49" fill="#E2007D" points="96.5537727 56.7039901 99.2678725 68.6173392 99.0272289 72.4132549 96.25323 60.8096703"></polygon>
                    <polygon id="Fill-50" fill="#8F0059" points="233.204134 37.5198318 222.114036 50.8937141 221.145564 47.4969182 232.008721 33.8932768"></polygon>
                    <polygon id="Fill-51" fill="#8F0059" points="229.758829 41.2467879 219.064163 54.3368406 218.130922 50.883304 228.604867 37.5515988"></polygon>
                    <polygon id="Fill-52" fill="#8F0059" points="222.006891 45.0834381 211.895917 57.9951626 207.795004 57.9936407 217.435306 45.0869166"></polygon>
                    <polygon id="Fill-53" fill="#8F0059" points="240.310078 45.0834381 228.281853 57.9951626 224.160207 57.993643 235.714119 45.0869114"></polygon>
                    <polygon id="Fill-54" fill="#E2007D" points="223.083549 48.929044 212.782906 61.4382891 211.886305 57.8603158 221.969989 45.0834381"></polygon>
                    <polygon id="Fill-55" fill="#8F0059" points="227.605512 48.9569554 216.868753 61.4382891 212.747631 61.4354996 223.005737 48.9588866"></polygon>
                    <polygon id="Fill-56" fill="#E2007D" points="228.251507 57.7507222 232.639768 72.6284503 245.693368 60.919035 240.22075 44.8682427"></polygon>
                    <polygon id="Fill-57" fill="#8F0059" points="236.864772 48.9569554 225.086163 61.4382891 220.930233 61.4355016 232.225306 48.9588852"></polygon>
                    <polygon id="Fill-58" fill="#E2007D" points="228.897502 52.8853892 217.803112 65.0966111 216.838932 61.4501911 227.696743 48.9569554"></polygon>
                    <polygon id="Fill-59" fill="#8F0059" points="233.634798 52.8304728 222.106714 65.0966111 217.91559 65.0925132 228.950931 52.8306884"></polygon>
                    <polygon id="Fill-60" fill="#E2007D" points="201.335056 47.4505227 207.050914 72.6284503 217.054264 60.9621438 209.954091 33.8932768"></polygon>
                    <polygon id="Fill-61" fill="#8F0059" points="207.149009 72.6215622 211.381814 72.6284503 221.791559 61.0106966 217.050328 61.0078983"></polygon>
                    <polygon id="Fill-62" fill="#8F0059" points="232.55814 72.6215761 236.844461 72.6284503 250.430663 61.010691 245.627393 61.0078983"></polygon>
                    <polygon id="Fill-63" fill="#8F0059" points="206.287683 37.5515988 197.973967 50.8900339 181.955211 50.8937141 188.476911 37.5760614"></polygon>
                    <polygon id="Fill-64" fill="#8F0059" points="209.086994 48.9569554 200.290498 61.4382891 183.893196 61.427544 190.793201 48.9642621"></polygon>
                    <polygon id="Fill-65" fill="#E2007D" points="169.465978 47.587855 172.833867 72.6284503 178.725237 61.0236723 174.544342 34.1084722"></polygon>
                    <polygon id="Fill-66" fill="#8F0059" points="172.911283 72.5804893 202.655228 72.6284503 212.101637 61.0287603 178.800108 61.0078983"></polygon>
                    <polygon id="Fill-67" fill="#E2007D" points="141.042205 37.6909474 139.25993 50.8937141 139.10422 47.5368812 140.850325 34.1084722"></polygon>
                    <polygon id="Fill-68" fill="#8F0059" points="149.655469 37.7667942 147.030728 50.8920015 139.10422 50.8937141 140.850087 37.7787826"></polygon>
                    <polygon id="Fill-69" fill="#8F0059" points="171.834625 37.5515988 167.0329 50.8917596 159.13006 50.8937141 163.052285 37.5637601"></polygon>
                    <polygon id="Fill-70" fill="#E2007D" points="147.07149 50.993737 148.568513 72.6284503 151.593454 61.0424165 149.73357 37.7667942"></polygon>
                    <polygon id="Fill-71" fill="#8F0059" points="148.578811 72.6079304 161.295694 72.6284503 165.80534 61.0167543 151.577062 61.0078983"></polygon>
                    <polygon id="Fill-72" fill="#8F0059" points="119.080467 37.7667942 119.509044 50.8928554 115.628265 50.8937141 114.771748 37.7728051"></polygon>
                    <polygon id="Fill-73" fill="#8F0059" points="136.520241 37.7667942 135.233762 50.8928567 131.352283 50.8937141 132.209582 37.7727957"></polygon>
                    <polygon id="Fill-74" fill="#8F0059" points="115.115337 72.594271 136.105824 72.6284503 137.596899 61.0226084 114.125754 61.0078983"></polygon>
                    <path d="M229.296882,39.0579666 L229.984621,41.2476974 L225.470349,41.2524595 L224.810267,39.0579666 L211.375271,39.0579666 L212.891192,44.8682427 L244.832041,44.8682427 L242.774659,39.0579666 L229.296882,39.0579666 Z M175.519302,39.0579666 L176.416409,44.8682427 L189.995521,44.8682427 L188.868088,39.0579666 L175.519302,39.0579666 Z M149.960615,39.0579666 L150.416947,44.8682427 L163.933832,44.8682427 L163.248254,39.0579666 L149.960615,39.0579666 Z M119.116085,39.0579666 L119.040246,44.8682427 L132.482589,44.8682427 L132.330478,39.0579666 L119.116085,39.0579666 Z M67.4339154,39.0579666 L66.466371,44.8682427 L79.7838271,44.8682427 L80.5255824,39.0579666 L67.4339154,39.0579666 Z M50.7430178,39.0579666 L50.2287802,41.438184 L41.4783153,41.4474919 L42.0562924,39.0579666 L33.3868523,39.0579666 L31.8318239,44.8682427 L62.7651571,44.8682427 L63.7955767,39.0579666 L50.7430178,39.0579666 Z M8.23350605,39.0579666 L6.24461671,44.8682427 L19.4199013,44.8682427 L21.1853781,39.0579666 L8.23350605,39.0579666 Z" id="Fill-75" fill="#E54D25"></path>
                    <path d="M232.008207,33.9080083 L233.195309,37.5360729 L228.72753,37.5423555 L229.203235,39.0579666 L242.678725,39.0579666 L240.851734,33.8932768 L232.008207,33.9080083 Z M209.951886,33.9452703 L211.284378,39.0579666 L224.71731,39.0579666 L224.26364,37.548638 L219.802775,37.5547039 L218.76236,33.9305389 L209.951886,33.9452703 Z M174.654254,34.0048463 L175.433918,39.0579666 L188.780652,39.0579666 L188.497649,37.5978152 L206.260962,37.573335 L205.367234,33.9530694 L174.654254,34.0048463 Z M140.77596,34.0620391 L140.964124,37.6634571 L149.768765,37.6511086 L149.879158,39.0579666 L163.164755,39.0579666 L162.996682,37.6331275 L171.835024,37.620779 L171.314168,34.0104789 L140.77596,34.0620391 Z M114.770123,34.1058003 L114.676365,37.6996359 L119.057298,37.6933533 L119.039367,39.0579666 L132.251513,39.0579666 L132.215436,37.6753722 L136.609331,37.6693063 L136.468262,34.0691882 L114.770123,34.1058003 Z M68.1759099,34.1846572 L67.365138,39.0579666 L80.4547935,39.0579666 L80.622003,37.7464301 L98.0580264,37.7225997 L98.3291478,34.1337469 L68.1759099,34.1846572 Z M51.7228367,34.2123871 L50.6768049,39.0579666 L63.7271423,39.0579666 L64.5895461,34.1907231 L51.7228367,34.2123871 Z M34.6108628,34.2414168 L33.3230901,39.0579666 L41.9914142,39.0579666 L43.1586405,34.2269019 L34.6108628,34.2414168 Z M1.30851188,34.2975265 L0,37.8575662 L8.58817585,37.845651 L8.17382455,39.0579666 L21.1237067,39.0579666 L21.4970117,37.8278866 L30.1214811,37.816188 L31.1132886,34.2472661 L1.30851188,34.2975265 Z" id="Fill-76" fill="#E33230"></path>
                    <path d="M212.765298,44.8682427 L214.281499,50.6785187 L218.912869,50.6785187 L217.366846,45.040763 L221.92193,45.037516 L223.034228,48.9067763 L227.648742,48.9048281 L228.182308,50.6785187 L232.824915,50.6785187 L232.267145,48.9030964 L236.88879,48.9011483 L235.620248,45.0273423 L240.189163,45.0240954 L242.116613,50.6785187 L246.770026,50.6785187 L244.712047,44.8682427 L212.765298,44.8682427 Z M176.283779,44.8682427 L177.181267,50.6785187 L190.993257,50.6785187 L190.651809,48.919764 L209.025366,48.9124043 L208.070393,45.0479062 L189.902785,45.0611104 L189.865399,44.8682427 L176.283779,44.8682427 Z M150.279515,44.8682427 L150.735715,50.6785187 L164.484602,50.6785187 L163.798897,44.8682427 L150.279515,44.8682427 Z M118.897019,44.8682427 L118.82095,50.6785187 L132.493983,50.6785187 L132.341844,44.8682427 L118.897019,44.8682427 Z M66.3134341,44.8682427 L65.345711,50.6785187 L78.8914576,50.6785187 L79.110157,48.9652211 L97.1340543,48.9580778 L97.4238526,45.129296 L79.5983407,45.1425002 L79.6333499,44.8682427 L66.3134341,44.8682427 Z M31.6724903,44.8682427 L30.1171747,50.6785187 L39.0875229,50.6785187 L40.419817,45.1712896 L49.2676331,45.1647958 L48.0758079,50.6785187 L61.5809266,50.6785187 L62.6115366,44.8682427 L31.6724903,44.8682427 Z M6.08055728,44.8682427 L4.0913006,50.6785187 L17.4924722,50.6785187 L19.2582752,44.8682427 L6.08055728,44.8682427 Z" id="Fill-77" fill="#F08F1A"></path>
                    <path d="M242.210752,50.6785187 L244.191502,56.4887947 L248.923342,56.4887947 L246.865212,50.6785187 L242.210752,50.6785187 Z M228.274174,50.6785187 L228.931686,52.8639202 L233.60387,52.8634873 L232.917395,50.6785187 L228.274174,50.6785187 Z M214.370666,50.6785187 L215.887138,56.4887947 L220.596498,56.4887947 L219.002863,50.6785187 L214.370666,50.6785187 Z M177.263809,50.6785187 L178.161458,56.4887947 L192.206324,56.4887947 L191.078265,50.6785187 L177.263809,50.6785187 Z M150.81375,50.6785187 L151.270247,56.4887947 L165.250919,56.4887947 L164.565092,50.6785187 L150.81375,50.6785187 Z M118.893068,50.6785187 L118.817202,56.4887947 L132.720709,56.4887947 L132.568543,50.6785187 L118.893068,50.6785187 Z M65.4082786,50.6785187 L64.4403826,56.4887947 L78.2146359,56.4887947 L78.9566606,50.6785187 L65.4082786,50.6785187 Z M48.1355072,50.6785187 L46.8794903,56.4887947 L60.6120277,56.4887947 L61.6428218,50.6785187 L48.1355072,50.6785187 Z M30.1734504,50.6785187 L28.6180731,56.4887947 L37.7395956,56.4887947 L39.1454007,50.6785187 L30.1734504,50.6785187 Z M4.14292807,50.6785187 L2.15331611,56.4887947 L15.780591,56.4887947 L17.5467093,50.6785187 L4.14292807,50.6785187 Z" id="Fill-78" fill="#F7B041"></path>
                    <path d="M244.07975,56.4887947 L245.639123,61.0051211 L250.430663,61.0078983 L248.809287,56.4887947 L244.07975,56.4887947 Z M215.789159,56.4887947 L216.978025,60.9871763 L221.746665,60.9901671 L220.496228,56.4887947 L215.789159,56.4887947 Z M178.081839,56.4887947 L178.781807,60.9634635 L212.015813,60.9841855 L210.993514,56.9000301 L192.199589,56.8949031 L192.119654,56.4887947 L178.081839,56.4887947 Z M151.203499,56.4887947 L151.558236,60.9465868 L165.711416,60.9553456 L165.177583,56.4887947 L151.203499,56.4887947 Z M118.766462,56.4887947 L118.761278,56.8748219 L114.130255,56.8735402 L114.023099,60.9233013 L137.481101,60.937828 L137.31972,56.879949 L132.673574,56.8784536 L132.663204,56.4887947 L118.766462,56.4887947 Z M64.4161061,56.4887947 L63.6731462,60.8918979 L96.253417,60.911979 L96.5634337,56.8686267 L78.1350472,56.8637133 L78.1836561,56.4887947 L64.4161061,56.4887947 Z M46.8637598,56.4887947 L45.902168,60.8807892 L59.7991256,60.8893343 L60.5896142,56.4887947 L46.8637598,56.4887947 Z M28.6110135,56.4887947 L27.4234443,60.8692532 L36.6535164,60.8750212 L37.728313,56.4887947 L28.6110135,56.4887947 Z M2.15935162,56.4887947 L0.645994832,60.8523765 L14.4338526,60.8611353 L15.7799948,56.4887947 L2.15935162,56.4887947 Z" id="Fill-79" fill="#FBE834"></path>
                    <path d="M164.858643,4.19631046 L165.619742,10.4369773 L179.1559,10.4369773 L178.150972,4.19631046 L164.858643,4.19631046 Z M121.573459,4.19631046 L121.540819,10.4369773 L126.011441,10.4369773 L125.988744,7.48381636 L139.315227,7.46933685 L139.453137,10.4369773 L152.930715,10.4369773 L152.397881,4.19631046 L121.573459,4.19631046 Z M104.754695,4.19631046 L104.573769,7.50663255 L95.7406048,7.51628555 L96.0071301,4.19631046 L87.2697251,4.19631046 L86.6082754,10.4369773 L117.80406,10.4369773 L117.90371,4.19631046 L104.754695,4.19631046 Z M79.2659672,4.19631046 L78.4577448,10.4369773 L82.8985367,10.4369773 L83.6267799,4.19631046 L79.2659672,4.19631046 Z M53.1812866,4.19631046 L51.8949182,10.4369773 L56.3147425,10.4369773 L57.521564,4.19631046 L53.1812866,4.19631046 Z M65.6455069,7.54853536 L65.1606599,10.4369773 L69.59086,10.4369773 L70.0396082,7.54392824 L65.6455069,7.54853536 Z" id="Fill-80" fill="#E54D25"></path>
                    <path d="M155.600259,0.158709298 L155.950351,3.72964873 L164.777009,3.71783722 L164.836655,4.19631046 L178.125698,4.19631046 L178.04401,3.69958308 L186.907838,3.68755683 L186.223861,0.107597704 L155.600259,0.158709298 Z M125.91953,0.20831761 L125.94784,3.77088161 L121.564333,3.77667998 L121.561956,4.19631046 L152.378974,4.19631046 L152.338778,3.73480284 L147.931284,3.74081597 L147.667417,0.172024083 L125.91953,0.20831761 Z M104.967995,0.243322609 L104.74735,4.19631046 L117.89333,4.19631046 L117.958162,0.221632395 L104.967995,0.243322609 Z M87.6915684,0.27231448 L87.2669189,4.19631046 L96.0021639,4.19631046 L96.3250271,0.257925922 L87.6915684,0.27231448 Z M79.7822829,0.285629265 L79.2649237,4.19631046 L83.6246583,4.19631046 L84.0916646,0.278327608 L79.7822829,0.285629265 Z M54.0009814,0.328794938 L53.1869078,4.19631046 L57.5261123,4.19631046 L58.2913458,0.321708037 L54.0009814,0.328794938 Z" id="Fill-81" fill="#E33230"></path>
                    <path d="M165.706983,10.2217819 L166.467271,16.4624487 L180.232558,16.4624487 L179.228702,10.2217819 L165.706983,10.2217819 Z M139.568291,10.2217819 L139.788107,14.9576242 L126.177425,14.9631091 L126.140933,10.2217819 L121.67508,10.2217819 L121.642691,16.4624487 L153.563543,16.4624487 L153.031276,10.2217819 L139.568291,10.2217819 Z M86.7797999,10.2217819 L86.1190558,16.4624487 L95.1671479,16.4624487 L95.5977113,11.0960676 L104.518837,11.0894858 L104.225605,16.4624487 L117.842548,16.4624487 L117.942092,10.2217819 L86.7797999,10.2217819 Z M78.6377479,10.2217819 L78.021917,14.9830739 L73.5323117,14.9848291 L74.0829319,11.1120834 L69.6419107,11.1153743 L69.7803215,10.2217819 L65.3550631,10.2217819 L65.2045603,11.1188846 L60.7704489,11.1219561 L60.0725649,14.9905333 L55.596779,14.9922885 L56.518366,10.2217819 L52.1032563,10.2217819 L50.8182601,16.4624487 L82.3465522,16.4624487 L83.0738027,10.2217819 L78.6377479,10.2217819 Z" id="Fill-82" fill="#F08F1A"></path>
                    <path d="M166.531317,16.4624487 L167.292066,22.7031156 L181.309216,22.7031156 L180.30475,16.4624487 L166.531317,16.4624487 Z M121.679289,16.4624487 L121.64688,22.7031156 L126.276411,22.7031156 L126.247459,18.9374342 L140.020676,18.9365567 L140.195685,22.7031156 L154.152122,22.7031156 L153.619749,16.4624487 L121.679289,16.4624487 Z M104.251838,16.4624487 L103.911326,22.7031156 L117.77745,22.7031156 L117.877054,16.4624487 L104.251838,16.4624487 Z M86.1340727,16.4624487 L85.4729271,22.7031156 L94.6868331,22.7031156 L95.1878777,16.4624487 L86.1340727,16.4624487 Z M50.8120473,16.4624487 L49.5262705,22.7031156 L63.2634059,22.7031156 L63.894519,18.9418221 L68.4341691,18.9413833 L67.8510214,22.7031156 L81.631585,22.7031156 L82.3592773,16.4624487 L50.8120473,16.4624487 Z" id="Fill-83" fill="#F7B041"></path>
                    <path d="M167.203677,22.4879202 L167.751752,26.9979948 L181.955211,27.0070238 L181.230066,22.4879202 L167.203677,22.4879202 Z M140.089437,22.4879202 L140.297424,26.9803773 L154.437752,26.9894063 L154.055072,22.4879202 L140.089437,22.4879202 Z M121.528405,22.4879202 L121.505055,26.9682653 L126.19558,26.9713484 L126.160988,22.4879202 L121.528405,22.4879202 Z M103.781161,22.4879202 L103.537933,26.9568139 L117.585077,26.9658429 L117.656424,22.4879202 L103.781161,22.4879202 Z M85.3306094,22.4879202 L84.8599354,26.9447019 L94.193421,26.9506478 L94.5505884,22.4879202 L85.3306094,22.4879202 Z M67.6970888,22.4879202 L67.652551,22.775966 L72.250325,22.7772873 L71.6605231,26.9363336 L80.9687129,26.9424997 L81.4865192,22.4879202 L67.6970888,22.4879202 Z M49.3602596,22.4879202 L48.4496124,26.921579 L57.7203991,26.9273047 L58.4680293,22.7733233 L63.0584524,22.7744244 L63.1064495,22.4879202 L49.3602596,22.4879202 Z" id="Fill-84" fill="#FBE834"></path>
                    <path d="M31.1081662,34.2464584 L1.30808045,34.2965734 L0,37.8465339 L8.58676193,37.8346532 L0.694431746,60.8506407 L14.4798199,60.8592812 L21.4934725,37.8169401 L30.116522,37.8050594 L31.1081662,34.2464584 Z M64.5786964,34.1900789 L51.7143213,34.2116802 L50.1543878,41.4185277 L41.4067078,41.4278163 L43.1515351,34.2261531 L34.6051647,34.240626 L27.4668815,60.8674897 L36.6949398,60.8733221 L40.5062145,45.1438909 L49.3493654,45.1374105 L45.9420059,60.8791544 L59.8360408,60.887795 L64.5786964,34.1900789 Z M98.3131754,34.1332675 L68.1646858,34.1840306 L63.7095227,60.8903871 L96.2832315,60.9109084 L96.5931878,56.822211 L78.1686068,56.8172427 L79.1770989,48.9301698 L97.1919327,48.9228253 L97.4815853,45.1019843 L79.6650371,45.1151611 L80.6087298,37.7355031 L98.0418826,37.7117417 L98.3131754,34.1332675 Z M136.445794,34.0691116 L114.751228,34.1056178 L114.657485,37.6888443 L119.037481,37.6827959 L118.78714,56.8284754 L114.156587,56.8271793 L114.049452,60.921925 L137.502886,60.93683 L137.341319,56.8336597 L132.696295,56.8323637 L132.193669,37.6646508 L136.58684,37.6586024 L136.445794,34.0691116 Z M171.285964,34.010356 L140.752783,34.0617671 L140.940917,37.6527701 L149.744108,37.6406733 L151.577278,60.9456865 L165.727486,60.954543 L162.970063,37.6223122 L171.806734,37.6102155 L171.285964,34.010356 Z M205.333423,33.9531125 L174.625284,34.0047396 L178.795547,60.9627515 L212.023296,60.9837048 L211.001196,56.853965 L192.210715,56.8487807 L190.662662,48.884807 L209.026979,48.8772466 L208.072487,45.0207634 L189.914015,45.0339402 L188.466616,37.5873181 L206.226789,37.5629086 L205.333423,33.9531125 Z M240.811866,33.8932768 L231.970011,33.9081817 L233.156701,37.5259704 L228.689874,37.5320187 L229.85302,41.2282201 L225.339969,41.2331884 L224.226719,37.5382831 L219.766804,37.5443315 L218.726128,33.9304311 L209.917321,33.945336 L216.984541,60.986945 L221.752036,60.9897532 L217.364264,45.013851 L221.916842,45.0103948 L223.028581,48.8716302 L227.64099,48.8699021 L228.831568,52.820783 L233.500568,52.820351 L232.256855,48.867958 L236.876392,48.8660139 L235.608487,45.0004581 L240.175105,44.9970019 L245.639624,61.0048741 L250.430663,61.0078983 L240.811866,33.8932768 Z M29.9698598,35.1124552 L29.4601058,36.9418707 L21.4921765,36.9528874 L20.8530401,36.9537515 L20.6668503,37.5652847 L13.8398195,59.9947965 L1.90401737,59.9874521 L9.40431221,38.1148223 L9.79721154,36.9688724 L8.58589794,36.9706005 L1.23982526,36.9807531 L1.91071329,35.1597621 L29.9698598,35.1124552 L29.9698598,35.1124552 Z M63.5473086,35.0558597 L59.1120174,60.0233102 L47.0127052,60.0157498 L50.1936994,45.3203737 L50.4204967,44.2727098 L49.3487174,44.2733578 L40.5055665,44.2798382 L39.8262546,44.2804862 L39.6664165,44.9404065 L36.0154119,60.0088374 L28.5926601,60.0040851 L35.2684928,35.1035986 L42.0527561,35.0921499 L40.5669098,41.2243319 L40.3079289,42.2931651 L41.4075718,42.291869 L50.1552518,42.2825804 L50.8514115,42.2819324 L50.9987218,41.6014909 L52.411561,35.0746529 L63.5473086,35.0558597 L63.5473086,35.0558597 Z M97.3809305,34.9988322 L97.2407481,36.8487691 L80.6074338,36.8714504 L79.8477709,36.8725305 L79.751652,37.6259845 L78.8079592,45.0056425 L78.6833287,45.9798619 L79.665685,45.9792138 L96.5495564,45.9669011 L96.3907982,48.0589887 L79.1766669,48.0661171 L78.4163559,48.0663331 L78.320021,48.8204351 L77.311529,56.7077241 L77.1871145,57.6810794 L78.1683908,57.6812954 L95.6611589,57.6860477 L95.482313,60.0464237 L64.7294626,60.0269825 L68.8964851,35.0470032 L97.3809305,34.9988322 L97.3809305,34.9988322 Z M135.615068,34.9344603 L135.688291,36.7958458 L132.192373,36.8005981 L131.306783,36.8018942 L131.329895,37.6873322 L131.832521,56.855045 L131.854769,57.6962003 L132.695863,57.6964164 L136.510593,57.6974964 L136.60412,60.0721292 L114.936338,60.0585204 L114.998329,57.6914481 L118.786708,57.6925281 L119.639682,57.6927441 L119.650914,56.8399241 L119.901471,37.6940286 L119.912919,36.8174471 L119.036185,36.8187432 L115.544371,36.8234955 L115.59297,34.9683744 L135.615068,34.9344603 L135.615068,34.9344603 Z M170.538397,34.8757047 L170.809042,36.7474589 L162.968983,36.7582595 L161.998074,36.7597716 L162.112121,37.7238384 L164.755282,60.0898423 L152.376037,60.0820658 L150.60529,37.5728452 L150.542651,36.7755406 L149.742812,36.7766207 L141.760627,36.7874213 L141.663212,34.9243077 L170.538397,34.8757047 L170.538397,34.8757047 Z M204.657567,34.8182452 L205.123474,36.700368 L188.46532,36.7232654 L187.418596,36.7247775 L187.618394,37.7521361 L189.066009,45.1989743 L189.201871,45.8986409 L189.914663,45.8979929 L207.396415,45.8852481 L207.923232,48.0138419 L190.662446,48.0207543 L189.614426,48.0211864 L189.81444,49.0496251 L191.362709,57.0135987 L191.498572,57.7126173 L192.210715,57.7128334 L210.324908,57.7178017 L210.919117,60.1190041 L179.536202,60.0991309 L175.632912,34.8670642 L204.657567,34.8182452 L204.657567,34.8182452 Z M240.202105,34.7584096 L249.207254,60.1431976 L246.257809,60.1412534 L240.992871,44.7179129 L240.793074,44.1325172 L240.174457,44.1329492 L235.607839,44.1364055 L234.415966,44.1372695 L234.787481,45.2698266 L235.683655,48.0023932 L232.256423,48.0039053 L231.079453,48.0043373 L231.432825,49.1271738 L232.32295,51.9562983 L229.473296,51.9565143 L228.46826,48.6204069 L228.282934,48.0054174 L227.640558,48.0058494 L223.678949,48.0073615 L222.747136,44.7712682 L222.566994,44.14591 L221.916194,44.1463421 L217.363616,44.1497983 L216.231142,44.1506623 L216.530946,45.2426089 L220.618482,60.1250525 L217.651973,60.1233243 L211.035755,34.8074446 L218.076192,34.7955638 L218.93651,37.7834581 L219.116867,38.4092482 L219.7681,38.4083842 L223.58499,38.4031998 L224.512699,41.4824676 L224.698241,42.0978891 L225.340833,42.0972411 L229.853884,42.0922728 L231.030206,42.0909767 L230.67705,40.9690043 L229.86706,38.3945593 L233.157781,38.390023 L234.34879,38.3882949 L233.977707,37.2566019 L233.161884,34.7702903 L240.202105,34.7584096 Z" id="Fill-85" fill="#FFFFFF"></path>
                    <path d="M84.1946598,0.322793113 L79.8765926,0.330121103 L77.9309613,15.0632614 L73.4286167,15.0649857 L73.9807992,11.260681 L69.5273931,11.2636984 L70.1155216,7.54366559 L65.7138692,7.5481917 L65.0774518,11.2671469 L60.6307585,11.2703798 L59.9306777,15.0705894 L55.4424084,15.0723137 L58.342341,0.366114468 L54.043546,0.373442458 L48.4496124,26.9865485 L57.7349402,26.9923678 L58.483743,22.9268418 L63.0813661,22.928135 L63.7619581,18.9524846 L68.3115089,18.9520535 L67.6824539,22.9294281 L72.287656,22.9307213 L71.696929,27.0012045 L81.0195021,27.0070238 L84.1946598,0.322793113 Z M83.4633969,0.97067368 L80.4424172,26.3602208 L72.4470311,26.3550481 L72.9303532,23.0229678 L73.0377581,22.2843494 L72.2878726,22.2841339 L68.4425169,22.2830563 L68.9531233,19.0527057 L69.0713553,18.3054662 L68.3112924,18.3054662 L63.7617416,18.3058972 L63.2134568,18.3058972 L63.1214264,18.8438579 L62.5330814,22.281332 L58.4839595,22.2802544 L57.9423876,22.2800389 L57.8447271,22.8102405 L57.1935848,26.3455649 L49.2490861,26.3406077 L54.5714758,1.01895221 L57.5526117,1.01421056 L54.8049082,14.9477378 L54.6526791,15.7193321 L55.4428414,15.7189011 L59.9308942,15.7171768 L60.4720331,15.7169613 L60.5696936,15.1871907 L61.1721139,11.9165361 L65.0778848,11.9137342 L65.6257365,11.9133032 L65.7177669,11.375558 L66.2621539,8.19434803 L69.3556752,8.1911151 L68.8855622,11.1632618 L68.7673302,11.9109324 L69.5278262,11.9102858 L73.2304806,11.9076994 L72.785703,14.9725237 L72.6785146,15.7120041 L73.4290498,15.7115731 L77.9313944,15.7098488 L78.5009002,15.7096333 L78.5751742,15.1475333 L80.4465315,0.975846379 L83.4633969,0.97067368 Z" id="Fill-86" fill="#FFFFFF"></path>
                    <path d="M118.001723,0.107597704 L105.005479,0.129476314 L104.603982,7.38537651 L95.7686552,7.39490779 L96.3584698,0.143989848 L87.7209732,0.158720001 L84.8406546,26.9864449 L94.1743398,26.9922936 L95.4640186,11.1419988 L104.396422,11.1352836 L103.519052,26.9981423 L117.56628,27.0070238 L118.001723,0.107597704 Z M117.342505,0.758540506 L116.928035,26.3569474 L104.204646,26.3487159 L105.044181,11.1712425 L105.082017,10.4849907 L104.39599,10.4854239 L95.46337,10.4921391 L94.8659882,10.4925724 L94.8175577,11.0891436 L93.5765256,26.3422173 L85.5627882,26.3370184 L88.3036529,0.807496604 L95.65493,0.79514927 L95.1224105,7.34205253 L95.0651155,8.04541735 L95.7695201,8.04476749 L104.60463,8.03523622 L105.217795,8.03458636 L105.251524,7.42133542 L105.619293,0.778252917 L117.342505,0.758540506 Z" id="Fill-87" fill="#FFFFFF"></path>
                    <path d="M186.225491,0.107597704 L155.684755,0.159071409 L156.033902,3.74026291 L164.836738,3.72820213 L167.719363,26.9979782 L181.877739,27.0070238 L178.067717,3.71011095 L186.907838,3.6978348 L186.225491,0.107597704 Z M185.690562,0.754572643 L186.127212,3.05301357 L178.06707,3.0639975 L177.307135,3.06507435 L177.429552,3.81435059 L181.116941,26.3604796 L168.290931,26.3522955 L165.478351,3.64894554 L165.408091,3.08144256 L164.835876,3.08208867 L156.620557,3.09350335 L156.397275,0.803892636 L185.690562,0.754572643 Z" id="Fill-88" fill="#FFFFFF"></path>
                    <path d="M147.694954,0.107597704 L125.928962,0.144106799 L125.957079,3.72783094 L121.56988,3.73366375 L121.447028,26.9862849 L126.138978,26.9893093 L126.075606,18.88321 L139.863358,18.8823459 L140.246622,26.9981665 L154.392765,27.0070238 L152.37025,3.69153787 L147.959259,3.69758672 L147.694954,0.107597704 Z M147.092158,0.756768302 L147.311907,3.74511335 L147.356246,4.34654129 L147.960124,4.34567717 L151.77524,4.34049244 L153.685068,26.3585013 L140.86564,26.3505081 L140.511575,18.8516696 L140.48216,18.2340394 L139.863358,18.2342554 L126.075606,18.2351196 L125.421765,18.2351196 L125.42674,18.8883947 L125.484921,26.3407868 L122.099139,26.3386265 L122.215069,4.38089008 L125.957945,4.37592139 L126.611136,4.37505727 L126.605945,3.72264622 L126.583019,0.791117095 L147.092158,0.756768302 Z" id="Fill-89" fill="#FFFFFF"></path>
                    <path d="M139.389717,7.42424159 L125.968992,7.43817436 L126.028422,14.9560809 L139.750215,14.9505078 L139.389717,7.42424159 Z M138.766682,8.06793541 L139.065791,14.3076714 L126.676492,14.3126014 L126.627076,8.08058207 L138.766682,8.06793541 Z" id="Fill-90" fill="#FFFFFF"></path>
                </g>
            </g>
        </g>
    </g>
</svg>